<?xml version="1.0" encoding="utf-8"?>
<!-- Generator: Adobe Illustrator 16.2.1, SVG Export Plug-In . SVG Version: 6.00 Build 0)  -->
<!DOCTYPE svg PUBLIC "-//W3C//DTD SVG 1.0//EN" "http://www.w3.org/TR/2001/REC-SVG-20010904/DTD/svg10.dtd">
<svg version="1.0" id="Layer_1" xmlns="http://www.w3.org/2000/svg" xmlns:xlink="http://www.w3.org/1999/xlink" x="0px" y="0px"
	 width="269.97px" height="247.5px" viewBox="0 0 269.97 247.5" enable-background="new 0 0 269.97 247.5" xml:space="preserve">
<g>
	<path fill="#FFFFFF" d="M93.37,160.47v7.2l0.24,0.1c0.1,0.04,6.97,3,11.86,7.8l-0.25-0.05c-0.24,1.19-0.42,2.42-0.56,3.66
		c-0.94,0.48-5.59,2.71-10.15,3.07c-5.02,0.4-8.37-1.53-8.4-1.55l-0.33-0.2l-2.65,4.12c-0.25-0.16-0.61-0.32-1.04-0.32
		c0,0,0,0-0.01,0c-0.06,0-0.11,0.01-0.17,0.02c0.01-0.09,0.02-0.19,0.01-0.28c-0.03-0.34-0.19-0.62-0.35-0.8l1.46-1.53l-11.74-14.66
		l-0.01,0.01c-0.34-0.41-0.68-0.8-1.04-1.18c0.3-0.26,0.57-0.55,0.55-0.96c-0.03-0.51-0.5-1.02-1.67-1.81l-0.48-0.33
		c-2.03-1.4-5.82-4.02-11.82-4.02c-1.09,0-2.23,0.09-3.37,0.26l-0.91,0.14l0.72,0.57c0.01,0.01,0.09,0.07,0.21,0.17c0,0,0,0-0.01,0
		c-3.95,0.48-4.43,2.3-4.46,3.07c-0.06,1.78,1.85,3.49,4.43,3.98c3.78,0.71,7.92,6.49,8.84,7.83l-0.65,0.56l10.23,16.28l2.21-1.84
		c0.34,0.35,0.84,0.7,1.39,0.7c0.25,0,0.51-0.07,0.77-0.24c0.47-0.31,1.34-1.1,2.32-2.03c-0.42,0.78-0.76,1.5-0.96,1.97
		c-0.19,0.43-0.2,0.85-0.04,1.25c0.19,0.46,0.56,0.77,0.84,0.95l-1.74,3.62l0.35,0.18c0.08,0.04,6.35,3.2,15.46,3.2
		c2.4,0,5-0.23,7.73-0.78c0,0.03,0,0.06,0,0.1c0,0.65,0.01,1.36,0.01,2.13c0,7.51,3.72,17.04,4.08,17.94v0.32h0.98
		c0.04,0.4,0.06,0.8,0.02,1.2h-1.65l-0.08,0.29c-0.01,0.04-1.35,4.59-4.81,7.54c-1.53,1.3-2.11,2.25-1.83,3
		c0.1,0.29,0.33,0.5,0.65,0.66c-0.39,0.37-0.8,0.68-1.16,0.93c-0.64,0.46-1.14,0.82-1.13,1.37c0.01,0.49,0.46,0.84,0.84,1.09
		c0.77,0.49,2.22,0.94,4.35,0.94c2.56,0,6.09-0.65,10.56-2.64c6.88-3.07,7.1-12.25,7.05-14.36h1.59V196.8h-3.73v-1.74l3.21,0.16
		l-0.01-0.43c-0.07-3.12,1.03-6.7,2.01-9.86l1.61,15.93l-1.24,9.35h2.16v1.6h-2.13l0.03,0.43c0.24,3.48,0.43,8.64,0.3,13.33h-1.89
		l-0.68,3.63l2.36,0.33c-0.03,0.33-0.06,0.65-0.09,0.96c-0.36,0.21-0.91,0.63-0.86,1.17c0.04,0.37,0.33,0.6,0.62,0.74
		c-0.29,1.86-0.72,3.28-1.31,3.94c-2.35,2.64-4.2,4.72-4.04,6.67c0.07,0.81,0.5,1.54,1.29,2.18c0.59,0.47,1.46,0.72,2.59,0.72l0,0
		c3.91,0,10.65-3.09,13.48-7.06c0.65-0.92,1.15-2.23,1.51-3.78c1-0.81,1.77-2.23,1.85-4.32c0.12-2.84-0.65-4.46-0.88-4.88
		c0.1-3.58,0-7.21-0.08-10.06c-0.04-1.43-0.07-2.66-0.07-3.59v-0.4h-1.75v-1.6h1.75v-7.72h2.69v7.72h1.75v1.6h-1.75v0.4
		c0,0.92-0.03,2.16-0.07,3.59c-0.08,2.85-0.18,6.48-0.08,10.06c-0.23,0.42-1,2.04-0.88,4.88c0.09,2.09,0.85,3.51,1.85,4.32
		c0.37,1.56,0.86,2.87,1.51,3.78c2.84,3.98,9.58,7.06,13.49,7.06c1.12,0,1.99-0.24,2.58-0.72c0.79-0.63,1.22-1.37,1.29-2.18
		c0.16-1.94-1.69-4.03-4.04-6.67c-0.59-0.67-1.02-2.09-1.31-3.94c0.29-0.14,0.58-0.37,0.62-0.74c0.05-0.54-0.5-0.96-0.86-1.17
		c-0.03-0.31-0.06-0.63-0.09-0.96l2.36-0.33l-0.68-3.63h-1.89c-0.13-4.69,0.06-9.84,0.3-13.33l0.03-0.43h-2.13v-1.6h2.16l-1.25-9.41
		l1.64-16.19h-1.54c0.04-1.59,0.28-2.97,0.53-3.97c0.25,1.17,0.68,2.55,1.14,4.05c0.98,3.17,2.1,6.77,2.03,9.91l-0.01,0.43
		l3.21-0.16v1.74h-3.73v22.27h1.58c-0.04,2.11,0.17,11.29,7.05,14.36c4.47,2,8,2.64,10.56,2.64c2.13,0,3.58-0.45,4.35-0.94
		c0.39-0.25,0.83-0.6,0.85-1.09c0.01-0.55-0.49-0.91-1.13-1.37c-0.36-0.26-0.77-0.56-1.16-0.93c0.33-0.16,0.55-0.37,0.65-0.65
		c0.27-0.75-0.31-1.7-1.84-3c-3.46-2.95-4.8-7.49-4.81-7.54l-0.08-0.29h-1.65c-0.04-0.4-0.02-0.8,0.02-1.2h0.98v-0.32
		c0.36-0.9,4.08-10.43,4.08-17.94c0-0.77,0.01-1.47,0.01-2.13c0.03-3.9,0.04-5.86-1.03-6.94c-0.62-0.62-1.55-0.89-3.15-0.92
		c0.17-3.68,0.22-9.76-0.8-15.04c6.29-5.54,13.91-8.01,14.01-8.05l0.28-0.09v-7.15L93.37,160.47z M122.66,184.61h-1.43
		c0.42-1.34,0.79-2.58,1.03-3.65C122.46,181.88,122.64,183.12,122.66,184.61z M118.35,239.52
		C118.35,239.52,118.35,239.52,118.35,239.52C118.35,239.52,118.35,239.52,118.35,239.52L118.35,239.52z"/>
	<path fill="#231F20" d="M154.18,247.5c-4.38,0-11.63-3.31-14.79-7.73c-0.68-0.95-1.22-2.22-1.64-3.86
		c-0.27-0.27-0.51-0.56-0.73-0.89c-0.22,0.32-0.46,0.62-0.73,0.89c-0.42,1.64-0.96,2.9-1.65,3.86c-3.16,4.43-10.41,7.73-14.79,7.73
		c-1.5,0-2.7-0.36-3.59-1.07c-1.42-1.15-1.81-2.42-1.88-3.29c-0.22-2.63,1.84-4.94,4.44-7.86c0.08-0.09,0.43-0.56,0.77-2.26
		c-0.34-0.45-0.45-0.91-0.48-1.21c-0.03-0.34,0.01-0.68,0.13-1l-0.16-0.02c-0.43-0.06-0.82-0.3-1.07-0.65
		c-0.25-0.35-0.35-0.8-0.27-1.23l0.05-0.25c-1.17,2.52-3.06,4.89-6.1,6.25c-4.08,1.82-7.96,2.78-11.22,2.78
		c-2.17,0-4.02-0.42-5.21-1.19c-0.38-0.25-1.54-0.99-1.58-2.39c-0.03-1.32,0.91-2.07,1.67-2.62c-0.61-2.07,1.46-3.83,2.36-4.59
		c3.05-2.6,4.3-6.73,4.31-6.77l0.08-0.28c0.1-0.34,0.3-0.63,0.57-0.83c-0.79-2.06-4.06-10.95-4.06-18.2c0-0.11,0-0.21,0-0.32
		c-2.05,0.32-4.11,0.47-6.14,0.47c-9.47,0-15.92-3.23-16.19-3.37l-0.35-0.18c-0.77-0.4-1.09-1.33-0.71-2.12l1.24-2.59
		c-0.16-0.22-0.28-0.45-0.38-0.69c0-0.01,0-0.01-0.01-0.02c-0.62,0.13-1.28,0.05-1.9-0.23l-1.28,1.06
		c-0.36,0.29-0.82,0.42-1.28,0.35c-0.46-0.07-0.86-0.34-1.1-0.73l-10.23-16.28c-0.31-0.49-0.32-1.08-0.07-1.57
		c-2.05-2.76-4.87-5.69-7.05-6.1c-3.41-0.64-5.82-3-5.73-5.6c0.03-0.76,0.39-3,3.58-4.1c0-0.02,0.01-0.04,0.02-0.06
		c0.16-0.62,0.68-1.08,1.31-1.17l0.91-0.14c1.23-0.19,2.44-0.28,3.61-0.28c6.51,0,10.56,2.8,12.73,4.3l0.48,0.33
		c1.1,0.74,2.29,1.65,2.37,3.05c0.02,0.34-0.03,0.65-0.12,0.91c0.04,0.05,0.08,0.1,0.12,0.15c0.05,0.05,0.1,0.1,0.14,0.16
		l11.44,14.3l0.45-0.7c0.47-0.72,1.42-0.95,2.16-0.51l0.33,0.2c0.01,0.01,2.47,1.38,6.22,1.38c0.41,0,0.83-0.02,1.24-0.05
		c3.53-0.28,7.15-1.78,8.79-2.54c0.1-0.76,0.21-1.49,0.33-2.19c-4.58-4.11-10.46-6.65-10.52-6.68l-0.24-0.1
		c-0.59-0.25-0.98-0.83-0.98-1.47v-7.2c0-0.88,0.71-1.6,1.6-1.6l89.94-0.19c0.4-0.02,0.83,0.17,1.13,0.47
		c0.3,0.3,0.47,0.71,0.47,1.13v7.15c0,0.7-0.45,1.31-1.11,1.52l-0.28,0.09c-0.06,0.02-6.9,2.27-12.76,7.14
		c0.75,4.43,0.83,9.23,0.72,12.96c0.95,0.16,1.89,0.51,2.63,1.26c1.54,1.55,1.53,3.87,1.5,8.08c0,0.65-0.01,1.36-0.01,2.12
		c0,7.25-3.26,16.14-4.06,18.2c0.27,0.2,0.47,0.49,0.57,0.83l0.08,0.29c0.01,0.04,1.25,4.15,4.31,6.76c0.9,0.77,2.97,2.53,2.36,4.59
		c0.76,0.54,1.71,1.3,1.67,2.62c-0.04,1.4-1.2,2.15-1.58,2.39c-1.2,0.77-3.05,1.19-5.21,1.19c-3.26,0-7.14-0.96-11.21-2.78
		c-3.31-1.48-5.27-4.11-6.42-6.85l0.2,1.05c0.08,0.43-0.02,0.87-0.27,1.23c-0.26,0.35-0.64,0.59-1.08,0.65l-0.16,0.02
		c0.13,0.39,0.14,0.75,0.12,1.01c-0.03,0.3-0.13,0.76-0.47,1.21c0.34,1.7,0.7,2.18,0.77,2.26c2.6,2.93,4.66,5.24,4.44,7.86
		c-0.07,0.87-0.46,2.15-1.88,3.29C156.88,247.14,155.67,247.5,154.18,247.5z M139.95,213.41c-0.01,0.68-0.04,1.46-0.06,2.31l0,0.12
		c-0.08,2.9-0.17,6.46-0.08,9.97c0.01,0.29-0.06,0.57-0.2,0.82c-0.13,0.24-0.79,1.57-0.69,4.04c0.06,1.41,0.51,2.53,1.26,3.14
		c0.27,0.22,0.47,0.53,0.55,0.87c0.34,1.45,0.76,2.53,1.26,3.22c2.53,3.54,8.73,6.39,12.18,6.39c0.98,0,1.41-0.23,1.58-0.36
		c0.65-0.52,0.68-0.93,0.7-1.06c0.11-1.26-1.71-3.3-3.64-5.47c-0.79-0.89-1.33-2.4-1.7-4.76c-0.06-0.37,0.02-0.74,0.19-1.04
		c-0.25-0.26-0.41-0.59-0.45-0.96c-0.03-0.32-0.06-0.65-0.09-0.99c-0.07-0.84,0.53-1.59,1.37-1.71l0.7-0.1l-0.13-0.68h-0.56
		c-0.87,0-1.57-0.69-1.6-1.56c-0.14-4.87,0.08-9.7,0.22-12.2h-0.42c-0.88,0-1.6-0.72-1.6-1.6v-1.6c0-0.88,0.72-1.6,1.6-1.6h0.33
		l-1.01-7.6c-0.02-0.12-0.02-0.25-0.01-0.37l1.46-14.44c-0.35-0.05-0.67-0.21-0.92-0.46c-0.3-0.31-0.47-0.72-0.46-1.15
		c0.04-1.82,0.33-3.35,0.57-4.32c0.18-0.72,0.82-1.19,1.58-1.22c0.75,0.01,1.38,0.54,1.54,1.26c0.24,1.11,0.66,2.47,1.11,3.92
		c0.9,2.89,1.89,6.1,2.07,9.13l1.55-0.08c0.44-0.02,0.86,0.14,1.18,0.44c0.32,0.3,0.5,0.72,0.5,1.16v1.74c0,0.88-0.72,1.6-1.6,1.6
		h-2.13v19.07c0.43,0,0.83,0.18,1.13,0.48c0.3,0.31,0.47,0.72,0.46,1.15c-0.03,1.68,0.1,10.19,6.11,12.87
		c4.64,2.07,7.95,2.5,9.91,2.5c1.45,0,2.5-0.23,3.12-0.5c-0.43-0.31-0.88-0.65-1.32-1.07c-0.38-0.36-0.56-0.89-0.47-1.41
		c0.06-0.38,0.26-0.73,0.55-0.97c-0.17-0.23-0.5-0.63-1.19-1.21c-2.9-2.47-4.42-5.86-5.01-7.45h-0.49c-0.83,0-1.52-0.63-1.59-1.46
		c-0.04-0.47-0.03-0.96,0.03-1.51c0.08-0.72,0.64-1.29,1.34-1.41c0.88-2.36,3.71-10.39,3.71-16.69c0-0.77,0-1.48,0.01-2.14
		c0.02-3.13,0.04-5.19-0.57-5.8c-0.18-0.18-0.59-0.42-2.05-0.45c-0.43-0.01-0.84-0.19-1.14-0.51c-0.3-0.31-0.45-0.74-0.43-1.17
		c0.15-3.22,0.24-9.41-0.77-14.67c-0.11-0.56,0.09-1.13,0.51-1.5c5.34-4.7,11.54-7.26,13.75-8.08v-4.4l-86.74,0.19v4.56
		c1.96,0.92,7.46,3.72,11.62,7.79c0.51,0.5,0.63,1.27,0.29,1.89c-0.07,0.13-0.16,0.25-0.26,0.36c-0.15,0.84-0.27,1.74-0.38,2.68
		c-0.06,0.54-0.39,1.01-0.87,1.25c-0.94,0.47-5.86,2.85-10.74,3.24c-0.5,0.04-1,0.06-1.49,0.06c-3.12,0-5.51-0.78-6.8-1.32
		l-1.87,2.91c-0.47,0.73-1.45,0.95-2.19,0.49c-0.07-0.04-0.12-0.06-0.16-0.07c-0.03,0-0.05,0-0.07,0.01
		c-0.47,0.05-0.94-0.13-1.27-0.47c-0.33-0.33-0.5-0.8-0.45-1.26c-0.5-0.62-0.46-1.47,0.1-2.05l0.49-0.52l-10.75-13.43
		c-0.04-0.04-0.07-0.08-0.11-0.12c-0.32-0.38-0.64-0.75-0.97-1.1c-0.3-0.32-0.45-0.74-0.43-1.17c0.02-0.31,0.12-0.6,0.29-0.85
		c-0.16-0.13-0.38-0.3-0.71-0.52l-0.49-0.34c-2.03-1.4-5.41-3.74-10.92-3.74c-0.6,0-1.22,0.03-1.84,0.09
		c-0.21,0.59-0.75,0.99-1.36,1.04c-2.19,0.27-2.99,0.99-3.01,1.53c-0.03,0.85,1.22,1.99,3.13,2.35c4.19,0.79,8.29,6.21,9.86,8.5
		c0.36,0.52,0.37,1.18,0.07,1.7l8.57,13.64l0.8-0.67c0.64-0.54,1.59-0.49,2.17,0.12c0.08,0.08,0.15,0.14,0.21,0.17
		c0.23-0.17,0.78-0.62,2.01-1.8c0.57-0.54,1.45-0.59,2.07-0.12c0.62,0.48,0.81,1.33,0.44,2.03c-0.42,0.78-0.74,1.47-0.9,1.85
		c-0.02,0.04,0.04,0.13,0.2,0.23c0.68,0.44,0.93,1.31,0.58,2.04l-1.04,2.15c2.1,0.85,7.14,2.55,13.66,2.55
		c2.45,0,4.95-0.25,7.42-0.75c0.46-0.09,0.95,0.02,1.32,0.32c0.37,0.3,0.59,0.74,0.6,1.21l0,0.13c0,0.65,0.01,1.36,0.01,2.13
		c0,6.3,2.83,14.33,3.71,16.69c0.7,0.11,1.26,0.68,1.34,1.41c0.06,0.55,0.07,1.04,0.03,1.51c-0.07,0.83-0.76,1.46-1.59,1.46h-0.49
		c-0.6,1.59-2.13,5-5.01,7.45c-0.69,0.59-1.03,0.98-1.19,1.21c0.29,0.25,0.48,0.59,0.54,0.96c0.08,0.52-0.08,1.05-0.46,1.42
		c-0.45,0.43-0.9,0.77-1.32,1.07c0.62,0.27,1.67,0.5,3.12,0.5c1.96,0,5.27-0.43,9.91-2.5c6.01-2.69,6.14-11.19,6.1-12.87
		c-0.01-0.43,0.15-0.85,0.46-1.15c0.3-0.3,0.7-0.48,1.13-0.48V198.4h-2.13c-0.88,0-1.6-0.72-1.6-1.6v-1.74
		c0-0.44,0.18-0.86,0.5-1.16c0.32-0.3,0.75-0.45,1.18-0.44l1.55,0.08c0.18-3.03,1.17-6.23,2.06-9.09c0.02-0.05,0.04-0.1,0.06-0.16
		c0.01-0.05,0.03-0.11,0.04-0.17c0.41-1.33,0.77-2.52,0.99-3.52c0.16-0.74,0.85-1.24,1.57-1.26c0.75,0,1.4,0.54,1.56,1.28
		c0.26,1.25,0.4,2.58,0.43,3.95c0.01,0.43-0.16,0.84-0.46,1.15c-0.25,0.26-0.58,0.42-0.93,0.47l1.47,14.51
		c0.01,0.12,0.01,0.25-0.01,0.37l-1,7.53h0.33c0.88,0,1.6,0.72,1.6,1.6v1.6c0,0.88-0.72,1.6-1.6,1.6h-0.42
		c0.14,2.5,0.36,7.33,0.22,12.2c-0.02,0.87-0.73,1.56-1.6,1.56h-0.56l-0.13,0.68l0.7,0.1c0.84,0.12,1.44,0.87,1.37,1.71
		c-0.03,0.34-0.06,0.67-0.09,1c-0.04,0.36-0.2,0.7-0.45,0.96c0.18,0.31,0.25,0.67,0.2,1.04c-0.37,2.36-0.91,3.88-1.7,4.76
		c-0.47,0.53-0.93,1.05-1.36,1.55c0.19,0.5,0.12,1.08-0.22,1.53c-0.04,0.05-0.09,0.11-0.13,0.16c-0.34,0.36-0.83,0.53-1.31,0.48
		c-0.42,0.67-0.66,1.27-0.62,1.75c0.01,0.13,0.04,0.54,0.7,1.06c0.29,0.23,0.85,0.36,1.58,0.36c3.45,0,9.66-2.85,12.18-6.39
		c0.49-0.69,0.92-1.78,1.26-3.22c0.08-0.34,0.27-0.65,0.55-0.88c0.76-0.62,1.21-1.73,1.27-3.14c0.1-2.48-0.55-3.8-0.69-4.04
		c-0.14-0.25-0.21-0.53-0.2-0.82c0.1-3.55,0-7.11-0.08-9.97c-0.02-0.9-0.05-1.72-0.06-2.43h-0.16c-0.88,0-1.6-0.72-1.6-1.6v-1.6
		c0-0.88,0.72-1.6,1.6-1.6h0.15v-6.12c0-0.88,0.72-1.6,1.6-1.6h2.69c0.88,0,1.6,0.72,1.6,1.6v6.12h0.15c0.88,0,1.6,0.72,1.6,1.6v1.6
		c0,0.88-0.72,1.6-1.6,1.6H139.95z M153.73,223.96h0.32c0.36,0,0.7,0.12,0.97,0.33c-0.3-1.43-0.43-2.75-0.48-3.81h-0.01
		c-0.29,0-0.56-0.08-0.79-0.21C153.71,221.45,153.71,222.69,153.73,223.96z M119.64,220.67c-0.05,0.94-0.17,2.16-0.43,3.49
		c0.23-0.13,0.5-0.2,0.77-0.2h0.32c0.01-1.17,0.01-2.32,0-3.42c-0.2,0.08-0.41,0.13-0.64,0.13H119.64z M152.87,200.77l0.05,0.4
		v-0.93L152.87,200.77z M153.45,195.08l-0.04,0.38c0.03-0.03,0.05-0.05,0.08-0.07C153.47,195.29,153.45,195.18,153.45,195.08z"/>
</g>
<g>
	<path fill="#FFFFFF" d="M62.8,174.84c0,0-4.82-7.46-9.29-8.3c-4.48-0.84-6.39-5.49,0-6.26c6.39-0.77,12.57,0.89,17.73,7.33"/>
	<path fill="#231F20" d="M62.8,175.24c-0.13,0-0.26-0.06-0.34-0.18c-0.05-0.07-4.78-7.32-9.03-8.12c-2.59-0.49-4.49-2.2-4.43-3.98
		c0.03-0.76,0.51-2.59,4.46-3.07c7.43-0.9,13.35,1.55,18.09,7.48c0.14,0.17,0.11,0.42-0.06,0.56c-0.17,0.14-0.43,0.11-0.56-0.06
		c-4.56-5.69-10.24-8.04-17.37-7.18c-2.31,0.28-3.72,1.14-3.75,2.3c-0.04,1.17,1.39,2.71,3.78,3.17c4.59,0.87,9.35,8.17,9.55,8.48
		c0.12,0.19,0.07,0.43-0.12,0.55C62.95,175.22,62.88,175.24,62.8,175.24z"/>
</g>
<g>
	<path fill="#FFFFFF" d="M53.51,159.41c0,0,7.66,6.08,9.59,8.21c1.92,2.13,2.25,1.71,3.95,0.43c1.71-1.28,1.85-1.53,2.63-2.2
		c0.78-0.67,1.41-0.95-0.77-2.41C66.73,161.96,61.93,158.12,53.51,159.41z"/>
	<path fill="#231F20" d="M65.15,169.5c-0.74,0-1.43-0.6-2.35-1.62c-1.88-2.08-9.46-8.1-9.54-8.16c-0.12-0.1-0.18-0.26-0.14-0.42
		c0.04-0.15,0.17-0.27,0.33-0.29c1.14-0.17,2.28-0.26,3.37-0.26c6,0,9.79,2.61,11.82,4.01l0.49,0.33c1.18,0.79,1.64,1.3,1.67,1.81
		c0.03,0.49-0.34,0.8-0.7,1.1l-0.16,0.13c-0.22,0.19-0.39,0.35-0.56,0.5c-0.42,0.39-0.86,0.79-2.09,1.72l-0.24,0.18
		C66.28,169.12,65.77,169.5,65.15,169.5z M54.49,159.68c1.98,1.58,7.31,5.9,8.9,7.66c0.87,0.97,1.38,1.36,1.76,1.36
		c0.35,0,0.77-0.32,1.41-0.8l0.24-0.18c1.2-0.9,1.6-1.27,2.03-1.67c0.17-0.16,0.35-0.32,0.58-0.52l0.17-0.14
		c0.18-0.15,0.42-0.35,0.42-0.44c0-0.07-0.11-0.38-1.32-1.19l-0.49-0.34c-1.96-1.35-5.61-3.87-11.37-3.87
		C56.06,159.55,55.28,159.59,54.49,159.68z"/>
</g>
<g>
	<path fill="#FFFFFF" d="M74.11,189.2c0,0,0.93,1.32,1.89,0.68c0.96-0.64,3.84-3.52,5.01-4.69c1.17-1.17,0-1.95,0-1.95"/>
	<path fill="#231F20" d="M75.45,190.46c-0.73,0-1.37-0.61-1.67-1.03c-0.13-0.18-0.08-0.43,0.1-0.56c0.18-0.13,0.43-0.08,0.56,0.1
		c0.01,0.01,0.71,1,1.34,0.58c0.94-0.63,3.96-3.65,4.95-4.64c0.29-0.29,0.42-0.56,0.4-0.79c-0.03-0.32-0.34-0.54-0.34-0.54
		c-0.18-0.12-0.23-0.37-0.11-0.55s0.37-0.23,0.55-0.11c0.06,0.04,0.62,0.43,0.69,1.12c0.05,0.49-0.16,0.98-0.63,1.45
		c-1.75,1.75-4.17,4.14-5.07,4.74C75.96,190.39,75.7,190.46,75.45,190.46z"/>
</g>
<g>
	<path fill="#FFFFFF" d="M83.23,185.2c0,0-1.1-1.12-2.22,0c-1.12,1.12-2.53,3.87-3.06,5.12c-0.53,1.25,0.96,1.88,0.96,1.88"/>
	<path fill="#231F20" d="M78.9,192.59c-0.05,0-0.1-0.01-0.15-0.03c-0.09-0.04-0.9-0.4-1.21-1.15c-0.16-0.4-0.15-0.82,0.04-1.25
		c0.51-1.19,1.95-4.05,3.15-5.24c0.41-0.41,0.87-0.61,1.36-0.61c0,0,0,0,0.01,0c0.81,0,1.4,0.59,1.43,0.62
		c0.16,0.16,0.15,0.41,0,0.57c-0.16,0.16-0.41,0.15-0.56,0c-0.14-0.14-0.87-0.78-1.66,0c-1.01,1-2.37,3.57-2.98,4.99
		c-0.1,0.23-0.11,0.44-0.03,0.64c0.15,0.38,0.62,0.65,0.78,0.71c0.21,0.08,0.3,0.32,0.21,0.52C79.21,192.5,79.06,192.59,78.9,192.59
		z"/>
</g>
<g>
	<polygon fill="#FFFFFF" points="62.14,175.41 71.24,167.61 82.5,181.68 80.05,184.25 76.7,181.36 72.32,185 74.83,188.61 
		71.95,191.01 	"/>
	<path fill="#231F20" d="M71.95,191.41c-0.02,0-0.04,0-0.06,0c-0.11-0.02-0.21-0.09-0.28-0.18l-9.81-15.6
		c-0.11-0.17-0.07-0.39,0.08-0.52l9.1-7.79c0.08-0.07,0.19-0.1,0.3-0.09c0.11,0.01,0.21,0.06,0.27,0.15l11.26,14.07
		c0.12,0.16,0.12,0.38-0.02,0.53l-2.45,2.57c-0.15,0.16-0.39,0.17-0.55,0.03l-3.09-2.67l-3.84,3.19l2.3,3.3
		c0.12,0.17,0.09,0.4-0.07,0.54l-2.88,2.4C72.13,191.38,72.04,191.41,71.95,191.41z M62.66,175.48l9.38,14.92l2.24-1.87l-2.29-3.3
		c-0.12-0.17-0.09-0.4,0.07-0.54l4.38-3.64c0.15-0.12,0.37-0.12,0.52,0l3.06,2.64l1.95-2.04l-10.78-13.47L62.66,175.48z"/>
</g>
<g>
	<path fill="#FFFFFF" d="M105.03,179.44c0,0-5.27,2.79-10.49,3.21s-8.63-1.6-8.63-1.6l-3.09,4.79l4.9,1.92l-2.37,5.04l-5.97-1.59
		l-2.21,4.61c0,0,10.05,5.17,23.41,2.29"/>
	<path fill="#231F20" d="M92.45,199.36c-9.11,0-15.38-3.15-15.46-3.2c-0.19-0.1-0.27-0.33-0.18-0.53l2.21-4.61
		c0.08-0.17,0.28-0.26,0.46-0.21l5.65,1.51l2.04-4.35l-4.5-1.76c-0.11-0.04-0.2-0.14-0.23-0.25c-0.04-0.11-0.02-0.24,0.04-0.34
		l3.09-4.79c0.12-0.18,0.35-0.24,0.54-0.13c0.03,0.02,3.37,1.95,8.4,1.55c5.08-0.4,10.28-3.14,10.33-3.16
		c0.2-0.11,0.44-0.03,0.54,0.17s0.03,0.44-0.17,0.54c-0.22,0.12-5.4,2.84-10.64,3.25c-4.41,0.35-7.53-0.98-8.53-1.48l-2.63,4.07
		l4.45,1.74c0.1,0.04,0.18,0.12,0.23,0.22s0.04,0.22-0.01,0.32l-2.37,5.04c-0.08,0.17-0.28,0.26-0.46,0.22l-5.65-1.51l-1.9,3.95
		c1.88,0.85,11.11,4.6,22.79,2.09c0.22-0.04,0.43,0.09,0.47,0.31c0.05,0.22-0.09,0.43-0.31,0.48
		C97.75,199.11,94.99,199.36,92.45,199.36z"/>
</g>
<g>
	<path fill="#FFFFFF" d="M169.51,218.47c0,0,4.08-10,4.08-17.87c0-7.87,0.51-9.6-4.08-9.6h-10.86c0,0-2.15-0.26-2.15,11.08"/>
	<path fill="#231F20" d="M169.51,218.87c-0.05,0-0.1-0.01-0.15-0.03c-0.2-0.08-0.3-0.32-0.22-0.52c0.04-0.1,4.05-10.02,4.05-17.72
		c0-0.77,0-1.48,0.01-2.13c0.02-3.56,0.04-5.53-0.8-6.37c-0.48-0.49-1.35-0.69-2.89-0.69h-10.86c-0.01,0-1.75,0.47-1.75,10.68
		c0,0.22-0.18,0.4-0.4,0.4s-0.4-0.18-0.4-0.4c0-7.87,1.02-10.43,1.88-11.19c0.35-0.31,0.63-0.3,0.71-0.29l10.81,0
		c1.8,0,2.8,0.27,3.46,0.93c1.07,1.08,1.06,3.04,1.03,6.94c0,0.65-0.01,1.36-0.01,2.13c0,7.85-4.07,17.92-4.11,18.02
		C169.82,218.78,169.67,218.87,169.51,218.87z"/>
</g>
<g>
	<path fill="#FFFFFF" d="M152.06,178.75c0,0-1.11,2.61-1.11,6.26"/>
	<path fill="#231F20" d="M150.95,185.41c-0.22,0-0.4-0.18-0.4-0.4c0-3.69,1.09-6.31,1.14-6.42c0.09-0.2,0.32-0.3,0.53-0.21
		c0.2,0.09,0.3,0.32,0.21,0.52c-0.01,0.02-1.08,2.58-1.08,6.1C151.35,185.23,151.17,185.41,150.95,185.41z"/>
</g>
<g>
	<path fill="#FFFFFF" d="M156.53,218.47c0,0-0.67,11.06,6.8,14.4c7.46,3.33,12.67,2.93,14.53,1.73c1.87-1.2-0.67-1.47-2.13-3.47
		s-8.08-7.2-7.15-12.67"/>
	<path fill="#231F20" d="M173.73,235.88c-2.56,0-6.09-0.65-10.56-2.64c-7.63-3.41-7.06-14.33-7.04-14.79
		c0.01-0.22,0.21-0.39,0.42-0.38c0.22,0.01,0.39,0.2,0.38,0.42c-0.01,0.11-0.56,10.83,6.56,14.01c7.88,3.52,12.71,2.69,14.15,1.76
		c0.45-0.29,0.48-0.43,0.48-0.43c0-0.12-0.5-0.48-0.8-0.7c-0.59-0.42-1.33-0.95-1.92-1.76c-0.29-0.4-0.84-0.97-1.47-1.63
		c-2.44-2.55-6.52-6.83-5.75-11.34c0.04-0.22,0.24-0.37,0.46-0.33c0.22,0.04,0.36,0.25,0.33,0.46c-0.7,4.11,3.21,8.21,5.54,10.65
		c0.68,0.71,1.21,1.27,1.54,1.71c0.52,0.71,1.2,1.19,1.74,1.58c0.64,0.46,1.14,0.82,1.13,1.37c-0.01,0.49-0.46,0.84-0.84,1.09
		C177.31,235.43,175.85,235.88,173.73,235.88z"/>
</g>
<g>
	<rect x="158.66" y="191.01" fill="#FFFFFF" width="7.6" height="9.6"/>
	<path fill="#231F20" d="M166.26,201.01h-7.6c-0.22,0-0.4-0.18-0.4-0.4v-9.6c0-0.22,0.18-0.4,0.4-0.4h7.6c0.22,0,0.4,0.18,0.4,0.4
		v9.6C166.66,200.83,166.48,201.01,166.26,201.01z M159.06,200.21h6.8v-8.8h-6.8V200.21z"/>
</g>
<g>
	<path fill="#FFFFFF" d="M168.58,175.41c1.65,8.26,0.62,18.53,0.62,18.53l-4,0.19l-0.8-3.21h-3.74l-0.8,3.47l-4.4,0.21
		c0.13-5.6-3.47-12.67-3.4-15.86"/>
	<path fill="#231F20" d="M155.46,195.01c-0.1,0-0.21-0.04-0.28-0.11c-0.08-0.08-0.12-0.19-0.12-0.3c0.07-3.13-1.04-6.73-2.03-9.9
		c-0.75-2.43-1.4-4.52-1.37-5.96c0-0.22,0.19-0.41,0.41-0.39c0.22,0,0.4,0.19,0.39,0.41c-0.03,1.31,0.6,3.34,1.34,5.7
		c0.96,3.09,2.04,6.58,2.07,9.73l3.68-0.18l0.73-3.18c0.04-0.18,0.2-0.31,0.39-0.31h3.74c0.18,0,0.34,0.12,0.39,0.3l0.72,2.89
		l3.32-0.16c0.16-1.85,0.81-10.8-0.64-18.07c-0.04-0.22,0.1-0.43,0.31-0.47c0.22-0.04,0.43,0.1,0.47,0.31
		c1.64,8.23,0.63,18.55,0.62,18.65c-0.02,0.2-0.18,0.35-0.38,0.36l-4,0.19c-0.19,0.03-0.36-0.12-0.41-0.3l-0.72-2.91h-3.11
		l-0.73,3.16c-0.04,0.17-0.19,0.3-0.37,0.31l-4.4,0.21C155.47,195.01,155.47,195.01,155.46,195.01z"/>
</g>
<g>
	<polygon fill="#FFFFFF" points="154.93,197.01 159.86,197.01 160.66,200.21 164.23,200.21 165.03,197.01 169.51,197.01 
		169.51,218.47 154.93,218.47 	"/>
	<path fill="#231F20" d="M169.51,218.87h-14.59c-0.22,0-0.4-0.18-0.4-0.4v-21.47c0-0.22,0.18-0.4,0.4-0.4h4.93
		c0.18,0,0.34,0.12,0.39,0.3l0.72,2.9h2.95l0.72-2.9c0.04-0.18,0.2-0.3,0.39-0.3h4.48c0.22,0,0.4,0.18,0.4,0.4v21.47
		C169.91,218.7,169.73,218.87,169.51,218.87z M155.33,218.07h13.79v-20.67h-3.77l-0.72,2.9c-0.04,0.18-0.2,0.3-0.39,0.3h-3.57
		c-0.18,0-0.34-0.12-0.39-0.3l-0.72-2.9h-4.22V218.07z"/>
</g>
<g>
	<path fill="#FFFFFF" d="M170.26,220.47c0,0-6.31,0-7.82,0c-1.51,0-1.38,1.33,0.02,3.33c1.4,2,6.97,6.95,10.4,7.47
		c3.43,0.51,5.93,0,2.33-3.07C171.59,225.14,170.26,220.47,170.26,220.47z"/>
	<path fill="#231F20" d="M174.89,231.84L174.89,231.84c-0.6,0-1.3-0.06-2.09-0.18c-3.64-0.54-9.27-5.63-10.67-7.63
		c-1.05-1.5-1.4-2.61-1.04-3.31c0.16-0.3,0.52-0.65,1.34-0.65h7.82c0.18,0,0.34,0.12,0.38,0.29c0.01,0.04,1.35,4.59,4.81,7.54
		c1.53,1.3,2.11,2.25,1.83,3C177.05,231.54,176.27,231.84,174.89,231.84z M162.44,220.87c-0.24,0-0.54,0.04-0.63,0.22
		c-0.16,0.3,0.02,1.11,0.98,2.48c1.3,1.86,6.76,6.79,10.13,7.3c0.75,0.11,1.41,0.17,1.97,0.17c1.1,0,1.57-0.22,1.64-0.42
		c0.04-0.09,0.12-0.64-1.6-2.11c-3.17-2.7-4.61-6.55-4.97-7.64H162.44z"/>
</g>
<g>
	<path fill="#FFFFFF" d="M104.67,218.67c0,0-4.08-10-4.08-17.87c0-7.87-0.51-9.6,4.08-9.6h11.65c0,0,2.19-0.02,1.51,8.98"/>
	<path fill="#231F20" d="M104.67,219.07c-0.16,0-0.31-0.09-0.37-0.25c-0.04-0.1-4.11-10.17-4.11-18.02c0-0.77-0.01-1.48-0.01-2.13
		c-0.03-3.9-0.04-5.86,1.03-6.94c0.66-0.66,1.66-0.93,3.46-0.93h11.65c0.08,0.01,0.42,0.02,0.81,0.43c0.75,0.8,1.54,3,1.09,8.98
		c-0.02,0.22-0.21,0.38-0.43,0.37c-0.22-0.02-0.38-0.21-0.37-0.43c0.6-8.03-1.12-8.55-1.14-8.55l-11.63,0
		c-1.54,0-2.4,0.21-2.89,0.69c-0.84,0.85-0.83,2.81-0.8,6.37c0,0.66,0.01,1.37,0.01,2.13c0,7.69,4.01,17.62,4.05,17.72
		c0.08,0.2-0.02,0.44-0.22,0.52C104.77,219.06,104.72,219.07,104.67,219.07z"/>
</g>
<g>
	<path fill="#FFFFFF" d="M122.13,178.94c0,0,0.95,2.35,0.95,6.07"/>
	<path fill="#231F20" d="M123.07,185.41c-0.22,0-0.4-0.18-0.4-0.4c0-3.6-0.91-5.89-0.92-5.92c-0.08-0.21,0.02-0.44,0.22-0.52
		c0.21-0.08,0.44,0.02,0.52,0.22c0.04,0.1,0.97,2.46,0.97,6.21C123.47,185.23,123.29,185.41,123.07,185.41z"/>
</g>
<g>
	<path fill="#FFFFFF" d="M117.66,218.67c0,0,0.67,11.06-6.8,14.4c-7.47,3.33-12.67,2.93-14.53,1.73c-1.87-1.2,0.67-1.47,2.13-3.47
		c1.47-2,8.08-7.2,7.15-12.67"/>
	<path fill="#231F20" d="M100.46,236.07c-2.13,0-3.58-0.45-4.35-0.94c-0.39-0.25-0.83-0.6-0.84-1.09c-0.01-0.55,0.49-0.91,1.13-1.37
		c0.54-0.39,1.22-0.88,1.74-1.58c0.33-0.44,0.86-1,1.54-1.71c2.34-2.45,6.24-6.54,5.54-10.65c-0.04-0.22,0.11-0.42,0.33-0.46
		c0.22-0.04,0.42,0.11,0.46,0.33c0.77,4.51-3.31,8.78-5.75,11.34c-0.63,0.66-1.17,1.23-1.47,1.63c-0.59,0.81-1.33,1.34-1.92,1.76
		c-0.3,0.21-0.8,0.57-0.79,0.7c0,0,0.02,0.14,0.48,0.43c1.45,0.93,6.27,1.76,14.15-1.76c7.12-3.18,6.57-13.9,6.56-14.01
		c-0.01-0.22,0.16-0.41,0.38-0.42c0.22-0.02,0.41,0.15,0.42,0.38c0.03,0.46,0.6,11.38-7.04,14.79
		C106.55,235.43,103.02,236.07,100.46,236.07z"/>
</g>
<g>
	<rect x="107.92" y="191.2" fill="#FFFFFF" width="7.6" height="9.6"/>
	<path fill="#231F20" d="M115.52,201.2h-7.6c-0.22,0-0.4-0.18-0.4-0.4v-9.6c0-0.22,0.18-0.4,0.4-0.4h7.6c0.22,0,0.4,0.18,0.4,0.4
		v9.6C115.92,201.02,115.75,201.2,115.52,201.2z M108.32,200.4h6.8v-8.8h-6.8V200.4z"/>
</g>
<g>
	<path fill="#FFFFFF" d="M105.61,175.6c-1.65,8.26-0.62,18.53-0.62,18.53l4.05,0.18l0.8-2.63l3.92,0.08l0.8,2.82l4.16,0.21
		c-0.13-5.6,3.47-12.67,3.4-15.86"/>
	<path fill="#231F20" d="M118.73,195.2c-0.01,0-0.01,0-0.02,0l-4.16-0.21c-0.17-0.01-0.32-0.12-0.36-0.29l-0.72-2.54l-3.32-0.07
		l-0.71,2.34c-0.05,0.17-0.21,0.32-0.4,0.28l-4.05-0.18c-0.2-0.01-0.36-0.16-0.38-0.36c-0.01-0.1-1.02-10.42,0.62-18.65
		c0.04-0.22,0.25-0.36,0.47-0.31c0.22,0.04,0.36,0.25,0.31,0.47c-1.45,7.27-0.8,16.22-0.64,18.07l3.4,0.15l0.71-2.33
		c0.05-0.17,0.22-0.25,0.39-0.28l3.92,0.08c0.18,0,0.33,0.12,0.38,0.29l0.72,2.55l3.45,0.17c0.02-3.15,1.11-6.64,2.07-9.73
		c0.73-2.36,1.37-4.4,1.34-5.7c0-0.22,0.17-0.4,0.39-0.41c0,0,0,0,0.01,0c0.22,0,0.39,0.17,0.4,0.39c0.03,1.44-0.62,3.53-1.37,5.96
		c-0.98,3.17-2.1,6.77-2.03,9.9c0,0.11-0.04,0.22-0.12,0.3C118.93,195.16,118.83,195.2,118.73,195.2z"/>
</g>
<g>
	<polygon fill="#FFFFFF" points="119.26,197.2 114.4,197.2 113.6,200.39 109.76,200.39 108.96,197.2 104.67,197.2 104.67,218.67 
		119.26,218.67 	"/>
	<path fill="#231F20" d="M119.26,219.07h-14.59c-0.22,0-0.4-0.18-0.4-0.4V197.2c0-0.22,0.18-0.4,0.4-0.4h4.29
		c0.18,0,0.34,0.12,0.39,0.3l0.72,2.88h3.21l0.72-2.88c0.04-0.18,0.2-0.3,0.39-0.3h4.86c0.22,0,0.4,0.18,0.4,0.4v21.47
		C119.66,218.89,119.48,219.07,119.26,219.07z M105.07,218.27h13.79V197.6h-4.15l-0.72,2.88c-0.04,0.18-0.2,0.3-0.39,0.3h-3.84
		c-0.18,0-0.34-0.12-0.39-0.3l-0.72-2.88h-3.58V218.27z"/>
</g>
<g>
	<path fill="#FFFFFF" d="M103.92,220.67c0,0,6.31,0,7.82,0s1.38,1.33-0.02,3.33c-1.4,2-6.97,6.95-10.4,7.47
		c-3.43,0.51-5.93,0-2.33-3.07C102.59,225.33,103.92,220.67,103.92,220.67z"/>
	<path fill="#231F20" d="M99.29,232.04c-1.38,0-2.16-0.31-2.39-0.95c-0.27-0.75,0.31-1.7,1.83-3c3.47-2.95,4.8-7.49,4.81-7.54
		c0.05-0.17,0.21-0.29,0.38-0.29h7.82c0.83,0,1.19,0.36,1.34,0.66c0.36,0.7,0.01,1.81-1.04,3.31c-1.4,2-7.03,7.09-10.67,7.63
		C100.6,231.98,99.89,232.04,99.29,232.04z M104.22,221.07c-0.36,1.09-1.79,4.93-4.97,7.64c-1.72,1.47-1.64,2.02-1.6,2.11
		c0.08,0.2,0.55,0.42,1.64,0.42c0.56,0,1.23-0.06,1.97-0.17c3.37-0.5,8.83-5.44,10.13-7.3c0.96-1.37,1.14-2.18,0.98-2.48
		c-0.1-0.18-0.4-0.22-0.63-0.22H104.22z"/>
</g>
<path fill="#FFFFFF" stroke="#231F20" stroke-linecap="round" stroke-linejoin="round" stroke-miterlimit="10" d="M131.16,183.64"/>
<g>
	<polyline fill="#FFFFFF" points="150.86,200.8 152.06,209.8 138.76,209.8 138.76,202.09 	"/>
	<path fill="#231F20" d="M152.06,210.21h-13.3c-0.22,0-0.4-0.18-0.4-0.4v-7.71c0-0.22,0.18-0.4,0.4-0.4c0.22,0,0.4,0.18,0.4,0.4
		v7.32h12.44l-1.14-8.55c-0.03-0.22,0.12-0.42,0.34-0.45c0.22-0.03,0.42,0.12,0.45,0.34l1.2,9c0.02,0.12-0.02,0.23-0.1,0.32
		S152.17,210.21,152.06,210.21z"/>
</g>
<g>
	<path fill="#FFFFFF" d="M138.76,212.21h13.3c0,0-1.43,20.93,1.65,24.4c3.08,3.46,5.45,6.13,2.8,8.27
		c-2.65,2.13-12.07-1.47-15.49-6.27C137.59,233.8,138.76,217.67,138.76,212.21z"/>
	<path fill="#231F20" d="M154.18,245.9c-3.91,0-10.65-3.08-13.49-7.06c-2.92-4.09-2.6-15.96-2.41-23.04
		c0.04-1.43,0.07-2.66,0.07-3.59c0-0.22,0.18-0.4,0.4-0.4h13.3c0.11,0,0.22,0.05,0.29,0.13c0.08,0.08,0.11,0.19,0.11,0.3
		c-0.49,7.18-0.8,21.46,1.55,24.11c2.35,2.64,4.2,4.72,4.04,6.67c-0.07,0.81-0.5,1.54-1.29,2.18
		C156.17,245.66,155.3,245.9,154.18,245.9z M139.16,212.61c-0.01,0.88-0.04,1.97-0.07,3.21c-0.19,6.99-0.51,18.68,2.26,22.56
		c2.7,3.79,9.12,6.73,12.83,6.73c0.92,0,1.64-0.19,2.08-0.54c0.62-0.5,0.94-1.03,0.99-1.62c0.13-1.6-1.71-3.67-3.84-6.07
		c-2.94-3.31-1.97-21.18-1.78-24.27H139.16z"/>
</g>
<g>
	<rect x="140.51" y="209.8" fill="#FFFFFF" width="9.45" height="2.4"/>
	<path fill="#231F20" d="M149.96,212.61h-9.45c-0.22,0-0.4-0.18-0.4-0.4v-2.4c0-0.22,0.18-0.4,0.4-0.4h9.45c0.22,0,0.4,0.18,0.4,0.4
		v2.4C150.36,212.43,150.18,212.61,149.96,212.61z M140.91,211.8h8.65v-1.6h-8.65V211.8z"/>
</g>
<g>
	<path fill="#FFFFFF" d="M138.61,225.96l2.4,2.89l1.98-1.32l10.71-1.58l0.54,2.89l-10.49,1.49c0,0-0.04,4.95-2.03,5.14
		c-1.99,0.19-3.87-1.58-4.01-4.76S138.61,225.96,138.61,225.96z"/>
	<path fill="#231F20" d="M141.44,235.89c-1.88,0-3.97-1.61-4.12-5.16c-0.14-3.27,0.91-4.92,0.95-4.99c0.07-0.11,0.18-0.17,0.31-0.18
		c0.13,0,0.25,0.05,0.33,0.14l2.17,2.62l1.68-1.12c0.05-0.03,0.11-0.05,0.16-0.06l10.71-1.58c0.21-0.03,0.41,0.11,0.45,0.32
		l0.54,2.89c0.02,0.11,0,0.22-0.07,0.31c-0.06,0.09-0.16,0.15-0.27,0.16l-10.15,1.44c-0.05,1.24-0.36,5-2.38,5.19
		C141.66,235.89,141.55,235.89,141.44,235.89z M138.7,226.69c-0.27,0.68-0.66,2.02-0.58,4.01c0.13,3.18,1.96,4.55,3.57,4.38
		c1.33-0.13,1.66-3.55,1.67-4.74c0-0.2,0.15-0.37,0.34-0.39l10.08-1.43l-0.39-2.1l-10.24,1.51l-1.91,1.27
		c-0.17,0.11-0.4,0.08-0.53-0.08L138.7,226.69z"/>
</g>
<g>
	<path fill="#FFFFFF" d="M152.06,230.72c0,0,1.93,0.95,0,1.48c-1.93,0.53-6.08,0-6.08,0s-0.7,4.27,2.59,7.07
		c3.29,2.8,3.89,2.53,3.89,2.53s3.38-2.72,3.53-2.53"/>
	<path fill="#231F20" d="M152.41,242.21c-0.83,0-2.65-1.4-4.1-2.63c-3.42-2.91-2.75-7.25-2.72-7.43c0.03-0.21,0.22-0.36,0.45-0.33
		c0.04,0,4.09,0.52,5.92,0.01c0.49-0.14,0.57-0.26,0.57-0.26c-0.03-0.07-0.35-0.33-0.64-0.47c-0.2-0.1-0.28-0.34-0.18-0.54
		s0.34-0.28,0.54-0.18c0.27,0.13,1.14,0.62,1.08,1.29c-0.06,0.64-0.88,0.86-1.15,0.94c-1.65,0.45-4.72,0.18-5.83,0.06
		c-0.07,1.07-0.03,4.17,2.49,6.32c2.35,2,3.25,2.37,3.5,2.43c3.22-2.59,3.51-2.55,3.69-2.53c0.11,0.01,0.22,0.08,0.29,0.16
		c0.13,0.17,0.1,0.43-0.07,0.56c-0.07,0.06-0.16,0.08-0.24,0.08c-0.39,0.19-1.94,1.36-3.28,2.44c-0.03,0.02-0.06,0.04-0.09,0.05
		C152.56,242.2,152.49,242.21,152.41,242.21z"/>
</g>
<g>
	<polyline fill="#FFFFFF" points="123.16,200.8 121.97,209.8 135.27,209.8 135.27,202.09 	"/>
	<path fill="#231F20" d="M135.27,210.21h-13.3c-0.12,0-0.23-0.05-0.3-0.14c-0.08-0.09-0.11-0.2-0.1-0.32l1.2-9
		c0.03-0.22,0.23-0.37,0.45-0.34c0.22,0.03,0.37,0.23,0.34,0.45l-1.14,8.55h12.44v-7.32c0-0.22,0.18-0.4,0.4-0.4s0.4,0.18,0.4,0.4
		v7.71C135.66,210.03,135.49,210.21,135.27,210.21z"/>
</g>
<g>
	<path fill="#FFFFFF" d="M135.27,212.21h-13.3c0,0,1.43,20.93-1.65,24.4c-3.08,3.46-5.45,6.13-2.8,8.27
		c2.65,2.13,12.07-1.47,15.49-6.27C136.43,233.8,135.27,217.67,135.27,212.21z"/>
	<path fill="#231F20" d="M119.85,245.9C119.85,245.9,119.85,245.9,119.85,245.9c-1.12,0-1.99-0.24-2.59-0.72
		c-0.79-0.63-1.22-1.36-1.29-2.18c-0.16-1.94,1.69-4.03,4.04-6.67c2.35-2.64,2.04-16.93,1.55-24.11c-0.01-0.11,0.03-0.22,0.11-0.3
		c0.08-0.08,0.18-0.13,0.29-0.13h13.3c0.22,0,0.4,0.18,0.4,0.4c0,0.93,0.03,2.16,0.07,3.59c0.19,7.09,0.51,18.95-2.41,23.04
		C130.49,242.81,123.75,245.9,119.85,245.9z M122.39,212.61c0.19,3.09,1.17,20.95-1.78,24.27c-2.13,2.4-3.97,4.47-3.84,6.07
		c0.05,0.59,0.37,1.12,0.99,1.62c0.44,0.35,1.16,0.54,2.08,0.54c3.72,0,10.13-2.94,12.83-6.73c2.76-3.88,2.45-15.57,2.26-22.56
		c-0.03-1.24-0.06-2.33-0.07-3.21H122.39z"/>
</g>
<g>
	<rect x="124.06" y="209.8" fill="#FFFFFF" width="9.45" height="2.4"/>
	<path fill="#231F20" d="M133.52,212.61h-9.45c-0.22,0-0.4-0.18-0.4-0.4v-2.4c0-0.22,0.18-0.4,0.4-0.4h9.45c0.22,0,0.4,0.18,0.4,0.4
		v2.4C133.92,212.43,133.74,212.61,133.52,212.61z M124.47,211.8h8.65v-1.6h-8.65V211.8z"/>
</g>
<g>
	<path fill="#FFFFFF" d="M135.41,225.96l-2.4,2.89l-2.52-1.68l-10.18-1.21l-0.54,2.89l10.49,1.49c0,0,0.04,4.95,2.03,5.14
		c1.99,0.19,3.87-1.58,4.01-4.76S135.41,225.96,135.41,225.96z"/>
	<path fill="#231F20" d="M132.58,235.89L132.58,235.89c-0.11,0-0.22,0-0.33-0.02c-2.02-0.19-2.33-3.95-2.38-5.19l-10.16-1.44
		c-0.11-0.02-0.21-0.07-0.27-0.16c-0.06-0.09-0.09-0.2-0.07-0.31l0.54-2.89c0.04-0.21,0.23-0.35,0.44-0.32l10.18,1.21
		c0.06,0.01,0.12,0.03,0.17,0.06l2.22,1.48l2.17-2.62c0.08-0.1,0.21-0.16,0.33-0.14c0.13,0.01,0.24,0.08,0.31,0.18
		c0.04,0.07,1.09,1.72,0.95,4.99C136.55,234.28,134.46,235.89,132.58,235.89z M120.24,228.51l10.08,1.43
		c0.2,0.03,0.34,0.2,0.34,0.39c0.01,1.19,0.34,4.62,1.67,4.74c1.6,0.17,3.44-1.2,3.57-4.38c0.08-1.99-0.31-3.33-0.58-4.01
		l-2.01,2.42c-0.13,0.16-0.36,0.19-0.53,0.08l-2.44-1.63l-9.71-1.16L120.24,228.51z"/>
</g>
<g>
	<path fill="#FFFFFF" d="M121.97,230.72c0,0-1.93,0.95,0,1.48c1.93,0.53,6.08,0,6.08,0s0.7,4.27-2.59,7.07s-3.89,2.53-3.89,2.53
		s-3.38-2.72-3.53-2.53"/>
	<path fill="#231F20" d="M121.61,242.21c-0.08,0-0.15-0.01-0.21-0.04c-0.03-0.01-0.06-0.03-0.09-0.05
		c-1.34-1.08-2.88-2.25-3.28-2.44c-0.08,0-0.17-0.03-0.24-0.08c-0.18-0.13-0.21-0.39-0.07-0.56c0.07-0.09,0.18-0.15,0.29-0.16
		c0.18-0.02,0.48-0.05,3.69,2.53c0.25-0.07,1.15-0.43,3.5-2.43c2.53-2.15,2.56-5.25,2.49-6.32c-1.11,0.12-4.18,0.39-5.83-0.06
		c-0.27-0.08-1.09-0.3-1.15-0.94c-0.06-0.67,0.81-1.16,1.08-1.29c0.2-0.09,0.44-0.01,0.54,0.18c0.1,0.2,0.02,0.44-0.18,0.54
		c-0.29,0.14-0.6,0.39-0.63,0.5c0.02,0.02,0.12,0.11,0.56,0.23c1.83,0.5,5.88-0.01,5.92-0.01c0.22-0.03,0.41,0.12,0.45,0.33
		c0.03,0.18,0.7,4.52-2.72,7.43C124.26,240.81,122.44,242.21,121.61,242.21z"/>
</g>
<g>
	<path fill="#FFFFFF" d="M131.86,169.34l-2,6.7c0,0,3.17,2.71,7.04,2.71c3.87,0,6.87-2.71,6.87-2.71l-2.4-6.7"/>
	<path fill="#231F20" d="M136.89,179.14c-3.97,0-7.16-2.69-7.29-2.8c-0.12-0.1-0.17-0.27-0.12-0.42l2-6.7
		c0.06-0.21,0.29-0.33,0.5-0.27c0.21,0.06,0.33,0.29,0.27,0.5l-1.92,6.44c0.74,0.57,3.44,2.45,6.57,2.45c3.12,0,5.67-1.86,6.39-2.43
		l-2.3-6.44c-0.08-0.21,0.03-0.44,0.24-0.51c0.21-0.07,0.44,0.03,0.51,0.24l2.4,6.7c0.05,0.15,0.01,0.32-0.11,0.43
		C143.9,176.45,140.87,179.14,136.89,179.14z"/>
</g>
<g>
	<polyline fill="#FFFFFF" points="121.73,163.43 118.36,174.84 130.22,174.84 	"/>
	<path fill="#231F20" d="M130.22,175.24h-11.86c-0.12,0-0.24-0.06-0.32-0.16c-0.07-0.1-0.1-0.23-0.06-0.35l3.37-11.41
		c0.06-0.21,0.28-0.33,0.5-0.27c0.21,0.06,0.33,0.29,0.27,0.5l-3.22,10.9h11.32c0.22,0,0.4,0.18,0.4,0.4
		C130.62,175.06,130.44,175.24,130.22,175.24z"/>
</g>
<g>
	<path fill="#FFFFFF" d="M154.25,174.84v3.91c0,0-7.93-0.58-11.36,3.9"/>
	<path fill="#231F20" d="M142.89,183.05c-0.08,0-0.17-0.03-0.24-0.08c-0.17-0.13-0.21-0.39-0.07-0.56c3.1-4.05,9.54-4.14,11.28-4.08
		v-3.49c0-0.22,0.18-0.4,0.4-0.4s0.4,0.18,0.4,0.4v3.91c0,0.11-0.05,0.22-0.13,0.29c-0.08,0.08-0.19,0.12-0.3,0.11
		c-0.08-0.01-7.76-0.51-11.01,3.75C143.13,183,143.01,183.05,142.89,183.05z"/>
</g>
<path fill="#231F20" d="M143.33,178.95c-0.08,0-0.15-0.05-0.19-0.13c-0.04-0.1,0.01-0.22,0.11-0.26c1.6-0.63,3.87-1.05,5.8-1.32
	h-5.42c-0.11,0-0.2-0.09-0.2-0.2c0-0.11,0.09-0.2,0.2-0.2h9.23c0.11,0,0.2,0.09,0.2,0.19s-0.08,0.2-0.19,0.21
	c-0.06,0-6.27,0.43-9.47,1.69C143.38,178.94,143.35,178.95,143.33,178.95z"/>
<g>
	<path fill="#FFFFFF" d="M118.36,174.84v3.9c0,0,8.16-0.38,12.63,3.91"/>
	<path fill="#231F20" d="M130.99,183.05c-0.1,0-0.2-0.04-0.28-0.11c-4.29-4.12-12.26-3.8-12.34-3.8c-0.11,0.02-0.22-0.04-0.29-0.11
		c-0.08-0.08-0.12-0.18-0.12-0.29v-3.9c0-0.22,0.18-0.4,0.4-0.4c0.22,0,0.4,0.18,0.4,0.4v3.49c1.76-0.03,8.5,0.19,12.51,4.03
		c0.16,0.15,0.17,0.41,0.01,0.56C131.2,183.01,131.09,183.05,130.99,183.05z"/>
</g>
<g>
	<polyline fill="#FFFFFF" points="150.47,164.05 154.25,174.84 143.33,174.84 	"/>
	<path fill="#231F20" d="M154.25,175.24h-10.92c-0.22,0-0.4-0.18-0.4-0.4c0-0.22,0.18-0.4,0.4-0.4h10.36l-3.6-10.26
		c-0.07-0.21,0.04-0.44,0.24-0.51c0.21-0.07,0.44,0.04,0.51,0.25l3.79,10.79c0.04,0.12,0.02,0.26-0.05,0.36
		C154.5,175.18,154.38,175.24,154.25,175.24z"/>
</g>
<path fill="#231F20" d="M130.32,178.95c-0.02,0-0.05,0-0.07-0.01c-3.67-1.37-9.74-1.69-9.8-1.69c-0.11,0-0.19-0.1-0.19-0.21
	c0-0.11,0.09-0.19,0.2-0.19h9.57c0.11,0,0.2,0.09,0.2,0.2c0,0.11-0.09,0.2-0.2,0.2h-5.52c1.92,0.26,4.16,0.68,5.88,1.32
	c0.1,0.04,0.16,0.15,0.12,0.26C130.48,178.9,130.4,178.95,130.32,178.95z"/>
<g>
	<path fill="#FFFFFF" d="M130.49,173.92c0,0,3.19,2.3,6.4,2.3c3.22,0,6.11-2.3,6.11-2.3"/>
	<path fill="#231F20" d="M136.89,176.61c-3.31,0-6.5-2.27-6.64-2.37c-0.18-0.13-0.22-0.38-0.09-0.56c0.13-0.18,0.38-0.22,0.56-0.09
		c0.03,0.02,3.12,2.22,6.17,2.22c3.04,0,5.83-2.19,5.86-2.21c0.17-0.14,0.42-0.11,0.56,0.07c0.14,0.17,0.11,0.42-0.06,0.56
		C143.13,174.33,140.21,176.61,136.89,176.61z"/>
</g>
<g>
	<path fill="#FFFFFF" d="M182.91,160.28v6.86c0,0-15.18,4.81-20.65,16.5c0,0-3.61-3.49-8.01-4.89"/>
	<path fill="#231F20" d="M162.26,184.04c-0.1,0-0.2-0.04-0.28-0.11c-0.04-0.03-3.6-3.44-7.85-4.8c-0.21-0.07-0.33-0.29-0.26-0.5
		s0.29-0.33,0.5-0.26c3.63,1.16,6.69,3.67,7.76,4.62c5.24-10.5,18.3-15.41,20.37-16.13v-6.57c0-0.22,0.18-0.4,0.4-0.4
		s0.4,0.18,0.4,0.4v6.86c0,0.17-0.11,0.33-0.28,0.38c-0.15,0.05-15.08,4.9-20.41,16.29c-0.05,0.12-0.16,0.2-0.29,0.22
		C162.31,184.04,162.28,184.04,162.26,184.04z"/>
</g>
<g>
	<path fill="#FFFFFF" d="M93.77,160.47v6.93c0,0,14.36,6.09,16.62,15.24c0,0,3.13-2.45,7.96-3.91"/>
	<path fill="#231F20" d="M110.39,183.05c-0.04,0-0.09-0.01-0.13-0.02c-0.13-0.04-0.22-0.15-0.26-0.28
		c-2.19-8.86-16.25-14.91-16.39-14.97c-0.15-0.06-0.24-0.21-0.24-0.37v-6.93c0-0.22,0.18-0.4,0.4-0.4c0.22,0,0.4,0.18,0.4,0.4v6.67
		c1.93,0.86,13.92,6.46,16.46,14.84c1.06-0.74,3.8-2.48,7.62-3.63c0.21-0.06,0.43,0.05,0.5,0.27c0.06,0.21-0.05,0.43-0.27,0.5
		c-4.7,1.42-7.8,3.82-7.84,3.84C110.57,183.02,110.48,183.05,110.39,183.05z"/>
</g>
<g>
	<polyline fill="#FFFFFF" points="171.16,173.3 165.46,170.21 153.71,173.3 	"/>
	<path fill="#231F20" d="M153.71,173.7c-0.18,0-0.34-0.12-0.39-0.3c-0.06-0.21,0.07-0.43,0.28-0.49l11.75-3.1
		c0.1-0.03,0.2-0.01,0.29,0.04l5.71,3.1c0.19,0.11,0.27,0.35,0.16,0.54s-0.35,0.27-0.54,0.16l-5.57-3.02l-11.59,3.06
		C153.78,173.7,153.74,173.7,153.71,173.7z"/>
</g>
<g>
	<polyline fill="#FFFFFF" points="104.27,173.92 108.66,170.87 118.86,173.14 	"/>
	<path fill="#231F20" d="M104.27,174.32c-0.13,0-0.25-0.06-0.33-0.17c-0.13-0.18-0.08-0.43,0.1-0.56l4.39-3.04
		c0.09-0.06,0.21-0.09,0.31-0.06l10.2,2.27c0.21,0.05,0.35,0.26,0.3,0.48c-0.05,0.22-0.26,0.35-0.48,0.3l-10.03-2.23l-4.25,2.95
		C104.43,174.3,104.35,174.32,104.27,174.32z"/>
</g>
<g>
	<polyline fill="#FFFFFF" points="142.76,183.64 141.73,198.54 141.02,198.54 139.54,194.8 134.66,194.8 133.06,198.54 
		132.36,198.54 131.16,183.64 	"/>
	<path fill="#231F20" d="M141.73,198.94h-0.72c-0.16,0-0.31-0.1-0.37-0.25l-1.38-3.49h-4.34l-1.5,3.5
		c-0.06,0.15-0.21,0.24-0.37,0.24h-0.7c-0.21,0-0.38-0.16-0.4-0.37l-1.2-14.9c-0.02-0.22,0.15-0.41,0.37-0.43
		c0.22-0.01,0.41,0.15,0.43,0.37l1.17,14.53h0.07l1.5-3.5c0.06-0.15,0.21-0.24,0.37-0.24h4.88c0.16,0,0.31,0.1,0.37,0.25l1.38,3.49
		h0.07l1-14.53c0.02-0.22,0.21-0.39,0.43-0.37c0.22,0.02,0.39,0.21,0.37,0.43l-1.03,14.9C142.12,198.78,141.94,198.94,141.73,198.94
		z"/>
</g>
<g>
	<polygon fill="#FFFFFF" points="141.02,198.54 140.64,202.09 133.53,202.09 133.06,198.54 134.66,194.8 139.54,194.8 	"/>
	<path fill="#231F20" d="M140.64,202.49h-7.11c-0.2,0-0.37-0.15-0.4-0.35l-0.47-3.55c-0.01-0.07,0-0.14,0.03-0.21l1.6-3.74
		c0.06-0.15,0.21-0.24,0.37-0.24h4.88c0.16,0,0.31,0.1,0.37,0.25l1.48,3.74c0.02,0.06,0.03,0.13,0.03,0.19l-0.38,3.55
		C141.01,202.34,140.84,202.49,140.64,202.49z M133.88,201.69h6.4l0.33-3.09l-1.34-3.39h-4.34l-1.45,3.4L133.88,201.69z"/>
</g>
<g>
	<polyline fill="#FFFFFF" points="147.01,185 152.46,185 150.86,200.8 144.65,204.93 142.26,202.09 141.73,198.54 145.66,197.2 
		147.56,193.74 146.96,184.25 142.72,184.25 	"/>
	<path fill="#231F20" d="M144.65,205.33c-0.12,0-0.23-0.05-0.31-0.14l-2.39-2.84c-0.05-0.06-0.08-0.12-0.09-0.2l-0.52-3.55
		c-0.03-0.19,0.08-0.38,0.27-0.44l3.78-1.29l1.77-3.22l-0.57-9h-3.87c-0.22,0-0.4-0.18-0.4-0.4c0-0.22,0.18-0.4,0.4-0.4h4.24
		c0.21,0,0.38,0.16,0.4,0.38l0.02,0.38h5.08c0.11,0,0.22,0.05,0.3,0.13c0.08,0.08,0.11,0.2,0.1,0.31l-1.6,15.79
		c-0.01,0.12-0.08,0.23-0.18,0.29l-6.21,4.13C144.8,205.31,144.72,205.33,144.65,205.33z M142.64,201.92l2.09,2.48l5.76-3.83
		l1.54-15.17h-4.58l0.53,8.31c0.01,0.08-0.01,0.15-0.05,0.22l-1.9,3.46c-0.05,0.09-0.13,0.15-0.22,0.19l-3.61,1.23L142.64,201.92z"
		/>
</g>
<g>
	<polyline fill="#FFFFFF" points="127,185 121.55,185 123.15,200.8 129.36,204.93 131.75,202.09 132.28,198.54 128.35,197.2 
		126.45,193.74 127.05,184.25 131.29,184.25 	"/>
	<path fill="#231F20" d="M129.36,205.33c-0.08,0-0.15-0.02-0.22-0.07l-6.21-4.13c-0.1-0.07-0.17-0.17-0.18-0.29l-1.6-15.79
		c-0.01-0.11,0.03-0.23,0.1-0.31c0.08-0.08,0.18-0.13,0.3-0.13h5.08l0.02-0.38c0.01-0.21,0.19-0.38,0.4-0.38h4.24
		c0.22,0,0.4,0.18,0.4,0.4c0,0.22-0.18,0.4-0.4,0.4h-3.87L127.4,185v0c0,0.02,0,0.04,0,0.05l-0.54,8.59l1.77,3.22l3.78,1.29
		c0.18,0.06,0.29,0.25,0.27,0.44l-0.52,3.55c-0.01,0.07-0.04,0.14-0.09,0.2l-2.39,2.84C129.59,205.28,129.48,205.33,129.36,205.33z
		 M123.53,200.57l5.76,3.83l2.09-2.48l0.46-3.11l-3.61-1.23c-0.09-0.03-0.17-0.1-0.22-0.19l-1.9-3.46
		c-0.04-0.07-0.05-0.14-0.05-0.22l0.53-8.31h-4.58L123.53,200.57z"/>
</g>
<path fill="#231F20" d="M142.76,184.04h-11.6c-0.2,0-0.36-0.14-0.39-0.33l-1.3-7.6c-0.04-0.22,0.11-0.42,0.33-0.46
	c0.22-0.04,0.42,0.11,0.46,0.33l1.24,7.27h10.91l0.95-7.25c0.03-0.22,0.23-0.37,0.45-0.34c0.22,0.03,0.37,0.23,0.34,0.45l-1,7.6
	C143.13,183.89,142.96,184.04,142.76,184.04z"/>
<path fill="#231F20" d="M115.52,196.4h-7.6c-0.22,0-0.4-0.18-0.4-0.4c0-0.22,0.18-0.4,0.4-0.4h7.6c0.22,0,0.4,0.18,0.4,0.4
	C115.92,196.22,115.75,196.4,115.52,196.4z"/>
<path fill="#231F20" d="M158.66,195.93c-0.22,0-0.4-0.18-0.4-0.4c0-0.22,0.18-0.4,0.4-0.4l7.6-0.06h0c0.22,0,0.4,0.18,0.4,0.4
	c0,0.22-0.18,0.4-0.4,0.4L158.66,195.93C158.66,195.93,158.66,195.93,158.66,195.93z"/>
<path fill="#231F20" d="M131.4,171.07c-0.02,0-0.04,0-0.06-0.01l-10.89-3.14l-7.58,1.61c-0.03,0.01-0.06,0.01-0.08,0l-19.46-4.38
	c-0.11-0.02-0.18-0.13-0.15-0.24c0.02-0.11,0.13-0.17,0.24-0.15l19.42,4.37l7.59-1.61c0.03-0.01,0.07-0.01,0.1,0l10.91,3.15h10.48
	l10.11-2.28c0.02,0,0.04-0.01,0.07,0l7.77,0.85l23.42-4.77c0.11-0.02,0.21,0.05,0.24,0.16c0.02,0.11-0.05,0.21-0.16,0.24
	l-23.45,4.77c-0.02,0-0.04,0-0.06,0l-7.77-0.85l-10.12,2.27L131.4,171.07z"/>
<path fill="#231F20" d="M131.16,183.84c-0.03,0-0.05-0.01-0.08-0.02c-0.1-0.04-0.15-0.16-0.11-0.26l2.36-5.53
	c0.04-0.1,0.16-0.15,0.26-0.11c0.1,0.04,0.15,0.16,0.11,0.26l-2.36,5.53C131.31,183.79,131.24,183.84,131.16,183.84z"/>
<path fill="#231F20" d="M142.76,183.84c-0.08,0-0.15-0.04-0.18-0.12l-2.53-5.54c-0.05-0.1,0-0.22,0.1-0.26c0.1-0.05,0.22,0,0.26,0.1
	l2.53,5.53c0.05,0.1,0,0.22-0.1,0.26C142.81,183.83,142.79,183.84,142.76,183.84z"/>
<path fill="#231F20" d="M139.54,195h-4.88c-0.09,0-0.17-0.06-0.19-0.14l-3.5-11.16c-0.03-0.11,0.03-0.22,0.13-0.25
	c0.11-0.03,0.22,0.03,0.25,0.13l3.46,11.02h4.58l3.18-11.02c0.03-0.11,0.14-0.17,0.25-0.14c0.11,0.03,0.17,0.14,0.14,0.25
	l-3.22,11.16C139.7,194.94,139.62,195,139.54,195z"/>
<path fill="#231F20" d="M133.53,202.29c-0.01,0-0.02,0-0.03,0c-0.11-0.02-0.18-0.12-0.17-0.23l1.13-7.29
	c0.02-0.11,0.12-0.19,0.23-0.17c0.11,0.02,0.18,0.12,0.17,0.23l-1.13,7.29C133.71,202.22,133.63,202.29,133.53,202.29z"/>
<path fill="#231F20" d="M140.64,202.29c-0.1,0-0.18-0.07-0.2-0.17l-1.1-7.29c-0.02-0.11,0.06-0.21,0.17-0.23
	c0.1-0.01,0.21,0.06,0.23,0.17l1.1,7.29c0.02,0.11-0.06,0.21-0.17,0.23C140.65,202.29,140.65,202.29,140.64,202.29z"/>
<path fill="#231F20" d="M141.02,198.74c-0.06,0-0.12-0.03-0.16-0.08l-1.8-2.28h-3.92l-1.93,2.28c-0.07,0.09-0.2,0.09-0.28,0.02
	c-0.08-0.07-0.1-0.2-0.02-0.28l1.99-2.35c0.04-0.04,0.09-0.07,0.15-0.07h4.11c0.06,0,0.12,0.03,0.16,0.08l1.86,2.35
	c0.07,0.09,0.05,0.21-0.03,0.28C141.1,198.73,141.06,198.74,141.02,198.74z"/>
<path fill="#231F20" d="M132.28,197.72c-0.02,0-0.04,0-0.06-0.01l-2.9-1c-0.04-0.01-0.08-0.04-0.1-0.08l-1.95-3
	c-0.03-0.04-0.04-0.08-0.03-0.13l0.68-7.89c0.01-0.1,0.09-0.18,0.2-0.18h3.21c0.11,0,0.2,0.09,0.2,0.2c0,0.11-0.09,0.2-0.2,0.2
	h-3.03l-0.66,7.64l1.87,2.88l2.84,0.98c0.1,0.04,0.16,0.15,0.12,0.25C132.44,197.67,132.36,197.72,132.28,197.72z"/>
<path fill="#231F20" d="M141.8,197.72c-0.09,0-0.17-0.05-0.19-0.14c-0.03-0.11,0.03-0.22,0.13-0.25l2.83-0.88l1.64-2.88l-0.49-7.74
	h-2.97c-0.11,0-0.2-0.09-0.2-0.2c0-0.11,0.09-0.2,0.2-0.2h3.16c0.11,0,0.19,0.08,0.2,0.19l0.51,7.99c0,0.04-0.01,0.08-0.03,0.11
	l-1.71,3c-0.03,0.04-0.07,0.08-0.12,0.09l-2.91,0.9C141.84,197.72,141.82,197.72,141.8,197.72z"/>
<path fill="#231F20" d="M147.56,193.94c-0.08,0-0.16-0.05-0.19-0.13c-0.04-0.1,0.01-0.22,0.12-0.26l4.17-1.55
	c0.1-0.04,0.22,0.01,0.26,0.12c0.04,0.1-0.01,0.22-0.12,0.26l-4.17,1.55C147.61,193.94,147.58,193.94,147.56,193.94z"/>
<path fill="#231F20" d="M126.45,193.94c-0.01,0-0.02,0-0.04,0l-4.48-0.78c-0.11-0.02-0.18-0.12-0.16-0.23
	c0.02-0.11,0.12-0.18,0.23-0.16l4.48,0.78c0.11,0.02,0.18,0.12,0.16,0.23C126.63,193.87,126.55,193.94,126.45,193.94z"/>
<path fill="#231F20" d="M145.23,202.52c-0.01,0-0.01,0-0.02,0l-2.98-0.23c-0.11-0.01-0.19-0.11-0.18-0.21
	c0.01-0.11,0.12-0.2,0.21-0.18l2.94,0.23l5.59-1.51c0.11-0.03,0.22,0.03,0.24,0.14c0.03,0.11-0.03,0.22-0.14,0.25l-5.63,1.52
	C145.27,202.52,145.25,202.52,145.23,202.52z"/>
<path fill="#231F20" d="M128.79,202.52c-0.02,0-0.04,0-0.05-0.01l-5.63-1.52c-0.11-0.03-0.17-0.14-0.14-0.25
	c0.03-0.11,0.14-0.17,0.25-0.14l5.59,1.51l2.93-0.23c0.1-0.02,0.21,0.07,0.21,0.18c0.01,0.11-0.07,0.21-0.18,0.21l-2.96,0.23
	C128.8,202.52,128.8,202.52,128.79,202.52z"/>
<path fill="#231F20" d="M127.05,184.45c-0.09,0-0.17-0.06-0.19-0.15c-0.87-3.08-3.85-4.81-3.88-4.82c-0.1-0.05-0.13-0.18-0.08-0.27
	c0.05-0.1,0.18-0.13,0.27-0.08c0.13,0.07,3.16,1.82,4.07,5.06c0.03,0.11-0.03,0.22-0.14,0.25
	C127.09,184.45,127.07,184.45,127.05,184.45z"/>
<path fill="#231F20" d="M146.96,184.45c-0.11,0-0.19-0.08-0.2-0.19c-0.15-2.44,4.44-5.37,4.64-5.49c0.1-0.06,0.22-0.03,0.28,0.06
	c0.06,0.09,0.03,0.22-0.06,0.28c-0.04,0.03-4.59,2.92-4.45,5.13c0.01,0.11-0.08,0.21-0.19,0.21
	C146.97,184.45,146.96,184.45,146.96,184.45z"/>
<path fill="#231F20" d="M157.66,180.47c-0.03,0-0.06-0.01-0.09-0.02c-0.1-0.05-0.14-0.17-0.09-0.27l0.93-1.94l-1.4-0.92l-1.09,2.07
	c-0.05,0.1-0.17,0.14-0.27,0.08c-0.1-0.05-0.14-0.17-0.08-0.27l1.19-2.27c0.03-0.05,0.07-0.09,0.13-0.1s0.11-0.01,0.16,0.03
	l1.73,1.13c0.08,0.05,0.11,0.16,0.07,0.25l-1,2.1C157.8,180.43,157.73,180.47,157.66,180.47z"/>
<path fill="#231F20" d="M160.78,182.58c-0.03,0-0.06-0.01-0.08-0.02c-0.1-0.04-0.15-0.16-0.1-0.26l0.97-2.18l-1.6-0.89l-0.73,1.97
	c-0.04,0.1-0.15,0.16-0.26,0.12c-0.1-0.04-0.16-0.15-0.12-0.26l0.81-2.19c0.02-0.06,0.06-0.1,0.12-0.12
	c0.05-0.02,0.12-0.02,0.17,0.01l1.97,1.1c0.09,0.05,0.13,0.16,0.08,0.26l-1.05,2.34C160.93,182.54,160.86,182.58,160.78,182.58z"/>
<path fill="#231F20" d="M115.24,180.11c-0.08,0-0.16-0.05-0.19-0.13l-0.85-2.17c-0.04-0.09,0-0.2,0.09-0.25l1.81-1
	c0.05-0.03,0.11-0.03,0.16-0.01c0.05,0.02,0.1,0.06,0.12,0.11l1.02,2.35c0.04,0.1,0,0.22-0.1,0.26c-0.1,0.04-0.22,0-0.26-0.1
	l-0.93-2.15l-1.47,0.81l0.78,2.01c0.04,0.1-0.01,0.22-0.11,0.26C115.29,180.1,115.27,180.11,115.24,180.11z"/>
<path fill="#231F20" d="M111.97,181.98c-0.08,0-0.16-0.05-0.19-0.13l-0.87-2.41c-0.04-0.1,0.01-0.21,0.1-0.25l2.04-0.95
	c0.05-0.02,0.12-0.02,0.17,0c0.05,0.02,0.09,0.07,0.11,0.13l0.64,2.25c0.03,0.11-0.03,0.22-0.14,0.25
	c-0.11,0.03-0.22-0.03-0.25-0.14l-0.58-2.02l-1.66,0.77l0.81,2.24c0.04,0.1-0.02,0.22-0.12,0.26
	C112.02,181.97,112,181.98,111.97,181.98z"/>
<path fill="#231F20" d="M113.77,191.97c-0.09,0-0.17-0.06-0.19-0.14c-1.03-3.48,0-6.96,0.45-8.21c-1.97,0.95-3.62,2.05-3.82,2.18
	c-0.12,0.08-0.3,0-0.32-0.14c-0.52-4.62-4.41-9.88-4.45-9.93c-0.07-0.09-0.05-0.21,0.04-0.28c0.09-0.07,0.21-0.05,0.28,0.04
	c0.04,0.05,3.81,5.17,4.48,9.81c0.64-0.41,2.26-1.42,4.06-2.25c0.08-0.03,0.16-0.02,0.22,0.04c0.06,0.06,0.08,0.15,0.04,0.22
	c-0.02,0.04-1.83,4.31-0.62,8.41c0.03,0.11-0.03,0.22-0.13,0.25C113.81,191.97,113.79,191.97,113.77,191.97z"/>
<path fill="#231F20" d="M163.69,191.12c-0.01,0-0.02,0-0.04,0c-0.11-0.02-0.18-0.12-0.16-0.23c0.3-1.7,0.05-3.78,0.01-4.15
	c-0.15-0.17-0.94-1-3.96-3.33c-3.4-2.63-7.61-2.56-7.65-2.57c-0.1-0.01-0.2-0.08-0.2-0.2s0.08-0.2,0.2-0.21
	c0.05,0,4.39-0.07,7.9,2.65c3.48,2.69,4.05,3.42,4.07,3.44c0.02,0.03,0.04,0.06,0.04,0.09c0.01,0.1,0.35,2.41,0,4.33
	C163.87,191.05,163.79,191.12,163.69,191.12z"/>
<path fill="#231F20" d="M164.41,192.39h-4.04c-0.11,0-0.2-0.09-0.2-0.2c0-0.11,0.09-0.2,0.2-0.2h4.04c0.11,0,0.2,0.09,0.2,0.2
	C164.61,192.3,164.52,192.39,164.41,192.39z"/>
<path fill="#231F20" d="M113.8,192.92h-4.04c-0.11,0-0.2-0.09-0.2-0.2c0-0.11,0.09-0.2,0.2-0.2h4.04c0.11,0,0.2,0.09,0.2,0.2
	C114,192.83,113.91,192.92,113.8,192.92z"/>
<path fill="#231F20" d="M171.16,213.97c-0.11,0-0.2-0.09-0.2-0.2v-18.1h-1.45c-0.09,0-0.17-0.06-0.2-0.15
	c-0.02-0.09,0.02-0.18,0.1-0.23l1.55-0.82v-3.75c0-0.11,0.09-0.2,0.2-0.2c0.11,0,0.2,0.09,0.2,0.2v3.87c0,0.07-0.04,0.14-0.11,0.18
	l-0.94,0.5h0.85c0.11,0,0.2,0.09,0.2,0.2v18.3C171.37,213.88,171.28,213.97,171.16,213.97z"/>
<path fill="#231F20" d="M107.92,195.73L107.92,195.73l-3.66-0.06c-0.09,0-0.17-0.07-0.19-0.16l-0.96-4.2
	c-0.02-0.11,0.04-0.21,0.15-0.24c0.11-0.02,0.21,0.04,0.24,0.15l0.93,4.04l3.5,0.05c0.11,0,0.2,0.09,0.2,0.2
	C108.12,195.64,108.03,195.73,107.92,195.73z"/>
<path fill="#231F20" d="M119.77,216.52h-15.1c-0.11,0-0.2-0.09-0.2-0.2s0.09-0.2,0.2-0.2h15.1c0.11,0,0.2,0.09,0.2,0.2
	S119.89,216.52,119.77,216.52z"/>
<path fill="#231F20" d="M119.77,215.22h-15.1c-0.11,0-0.2-0.09-0.2-0.2c0-0.11,0.09-0.2,0.2-0.2h15.1c0.11,0,0.2,0.09,0.2,0.2
	C119.97,215.13,119.89,215.22,119.77,215.22z"/>
<path fill="#231F20" d="M169.51,216.52h-15.16c-0.11,0-0.2-0.09-0.2-0.2s0.09-0.2,0.2-0.2h15.16c0.11,0,0.2,0.09,0.2,0.2
	S169.62,216.52,169.51,216.52z"/>
<path fill="#231F20" d="M169.51,215.22h-15.16c-0.11,0-0.2-0.09-0.2-0.2c0-0.11,0.09-0.2,0.2-0.2h15.16c0.11,0,0.2,0.09,0.2,0.2
	C169.71,215.13,169.62,215.22,169.51,215.22z"/>
<path fill="#231F20" d="M104.27,230.52C104.27,230.52,104.27,230.52,104.27,230.52c-3.91-0.1-5.62-2.21-5.7-2.31
	c-0.07-0.09-0.05-0.21,0.03-0.28c0.09-0.07,0.21-0.05,0.28,0.03c0.02,0.02,1.68,2.06,5.38,2.15c0.11,0,0.2,0.09,0.2,0.2
	C104.47,230.44,104.38,230.52,104.27,230.52z"/>
<path fill="#231F20" d="M170.73,230.03c-0.52,0-1.06-0.05-1.61-0.16c-0.11-0.02-0.18-0.13-0.16-0.24c0.02-0.11,0.13-0.18,0.24-0.16
	c3.69,0.73,6.78-1.53,6.81-1.55c0.09-0.07,0.21-0.05,0.28,0.04c0.07,0.09,0.05,0.21-0.04,0.28
	C176.13,228.34,173.82,230.03,170.73,230.03z"/>
<path fill="#231F20" d="M100.07,232.56c-1.73,0-2.87-0.32-2.9-0.33c-0.11-0.03-0.17-0.14-0.13-0.25c0.03-0.11,0.14-0.17,0.25-0.14
	c0.06,0.02,5.96,1.68,11.31-2.79c5.38-4.49,6.03-7.84,6.03-7.87c0.02-0.1,0.1-0.17,0.2-0.17h3.21c0.11,0,0.2,0.09,0.2,0.2
	c0,0.11-0.09,0.2-0.2,0.2h-3.05c-0.19,0.75-1.25,3.87-6.13,7.94C105.71,231.99,102.37,232.56,100.07,232.56z"/>
<path fill="#231F20" d="M177.62,233.33c-1.41,0-4.4-0.38-9.13-2.83c-6.13-3.17-7.91-8.15-8.2-9.08h-4.09c-0.11,0-0.2-0.09-0.2-0.2
	c0-0.11,0.09-0.2,0.2-0.2h4.24c0.09,0,0.17,0.06,0.2,0.15c0.01,0.06,1.45,5.57,8.04,8.98c6.61,3.42,9.77,2.73,9.8,2.72
	c0.11-0.03,0.21,0.04,0.24,0.15c0.03,0.11-0.04,0.21-0.15,0.24C178.53,233.27,178.21,233.33,177.62,233.33z"/>
<path fill="#231F20" d="M130.32,207.27c-0.05,0-0.1-0.02-0.13-0.05l-6.76-5.98c-0.08-0.07-0.09-0.2-0.02-0.28s0.2-0.09,0.28-0.02
	l6.61,5.85l2.45-2.84c0.04-0.04,0.09-0.07,0.15-0.07h2.36c0.11,0,0.2,0.09,0.2,0.2s-0.09,0.2-0.2,0.2H133l-2.53,2.92
	c-0.04,0.04-0.08,0.07-0.14,0.07C130.33,207.27,130.33,207.27,130.32,207.27z"/>
<path fill="#231F20" d="M145.23,207.27c-0.05,0-0.1-0.02-0.14-0.06l-2.92-2.93h-3.6c-0.11,0-0.2-0.09-0.2-0.2s0.09-0.2,0.2-0.2h3.69
	c0.05,0,0.1,0.02,0.14,0.06l2.86,2.88l6.14-3.9c0.09-0.06,0.22-0.03,0.28,0.06c0.06,0.09,0.03,0.22-0.06,0.28l-6.27,3.99
	C145.31,207.26,145.27,207.27,145.23,207.27z"/>
<path fill="#231F20" d="M135.7,214.49h-13.98c-0.11,0-0.2-0.09-0.2-0.2c0-0.11,0.09-0.2,0.2-0.2h13.98c0.11,0,0.2,0.09,0.2,0.2
	C135.9,214.4,135.81,214.49,135.7,214.49z"/>
<path fill="#231F20" d="M135.7,216.09h-13.98c-0.11,0-0.2-0.09-0.2-0.2s0.09-0.2,0.2-0.2h13.98c0.11,0,0.2,0.09,0.2,0.2
	S135.81,216.09,135.7,216.09z"/>
<path fill="#231F20" d="M152.03,214.49h-13.98c-0.11,0-0.2-0.09-0.2-0.2c0-0.11,0.09-0.2,0.2-0.2h13.98c0.11,0,0.2,0.09,0.2,0.2
	C152.23,214.4,152.14,214.49,152.03,214.49z"/>
<path fill="#231F20" d="M152.03,216.09h-13.98c-0.11,0-0.2-0.09-0.2-0.2s0.09-0.2,0.2-0.2h13.98c0.11,0,0.2,0.09,0.2,0.2
	S152.14,216.09,152.03,216.09z"/>
<path fill="#231F20" d="M113.6,218.67c-0.11,0-0.2-0.09-0.2-0.2v-18.09c0-0.11,0.09-0.2,0.2-0.2c0.11,0,0.2,0.09,0.2,0.2v18.09
	C113.8,218.58,113.71,218.67,113.6,218.67z"/>
<path fill="#231F20" d="M164.23,218.67c-0.11,0-0.2-0.09-0.2-0.2v-18.27c0-0.11,0.09-0.2,0.2-0.2c0.11,0,0.2,0.09,0.2,0.2v18.27
	C164.43,218.58,164.34,218.67,164.23,218.67z"/>
<path fill="#231F20" d="M130.32,210c-0.11,0-0.2-0.09-0.2-0.2v-2.73c0-0.11,0.09-0.2,0.2-0.2s0.2,0.09,0.2,0.2v2.73
	C130.52,209.92,130.43,210,130.32,210z"/>
<path fill="#231F20" d="M145.23,210c-0.11,0-0.2-0.09-0.2-0.2v-2.73c0-0.11,0.09-0.2,0.2-0.2c0.11,0,0.2,0.09,0.2,0.2v2.73
	C145.43,209.92,145.34,210,145.23,210z"/>
<path fill="#231F20" d="M130.27,230.54c0,0-0.01,0-0.01,0c-0.11-0.01-0.19-0.1-0.19-0.21l0.23-3.17l-0.27-14.95
	c0-0.11,0.09-0.2,0.2-0.2c0.12,0,0.2,0.09,0.2,0.2l0.28,14.96l-0.23,3.19C130.46,230.46,130.37,230.54,130.27,230.54z"/>
<path fill="#231F20" d="M145.23,227.41c-0.11,0-0.2-0.09-0.2-0.2v-15c0-0.11,0.09-0.2,0.2-0.2c0.11,0,0.2,0.09,0.2,0.2v15
	C145.43,227.32,145.34,227.41,145.23,227.41z"/>
<path fill="#231F20" d="M143.76,230.54c-0.09,0-0.17-0.06-0.19-0.15l-0.76-2.8c-0.03-0.11,0.03-0.22,0.14-0.25
	c0.11-0.03,0.22,0.03,0.24,0.14l0.76,2.8c0.03,0.11-0.03,0.22-0.14,0.25C143.79,230.54,143.78,230.54,143.76,230.54z"/>
<path fill="#231F20" d="M121,243.45c-0.05,0-0.11-0.02-0.14-0.06l-3.32-3.5c-0.08-0.08-0.07-0.21,0.01-0.28
	c0.08-0.08,0.21-0.07,0.28,0.01l3.25,3.42c0.7-0.12,4.87-0.92,7.39-3.89c0.06-0.07,0.15-0.09,0.23-0.06
	c0.06,0.02,1.43,0.61,1.72,2.27c0.02,0.11-0.05,0.21-0.16,0.23c-0.11,0.02-0.21-0.05-0.23-0.16c-0.21-1.18-1.03-1.73-1.35-1.91
	c-2.86,3.25-7.44,3.9-7.64,3.93C121.02,243.45,121.01,243.45,121,243.45z"/>
<path fill="#231F20" d="M151.73,245.79c-0.11,0-0.19-0.08-0.2-0.19c-0.01-0.11,0.08-0.21,0.19-0.21c0.45-0.03,0.77-0.18,0.94-0.45
	c0.32-0.49,0.13-1.25,0.04-1.52c-4.04-1.06-5.96-3.43-6.87-5.24c-0.57-1.13-0.81-2.18-0.92-2.88c-0.45,0.98-1.07,1.63-1.86,1.93
	c-1.51,0.57-3.04-0.36-3.11-0.4c-0.09-0.06-0.12-0.18-0.06-0.28c0.06-0.09,0.18-0.12,0.27-0.07c0.01,0.01,1.44,0.86,2.76,0.36
	c0.87-0.33,1.51-1.17,1.92-2.49c0.03-0.09,0.12-0.15,0.22-0.14c0.1,0.02,0.17,0.1,0.17,0.2c0,0.27,0.1,6.71,7.67,8.64
	c0.06,0.02,0.11,0.06,0.14,0.12c0.02,0.05,0.45,1.21-0.05,1.97c-0.25,0.38-0.67,0.6-1.25,0.63
	C151.74,245.79,151.73,245.79,151.73,245.79z"/>
<path fill="#231F20" d="M92.55,194.34c-1.96,0-4.43-0.32-7.27-1.36c-0.1-0.04-0.16-0.15-0.12-0.26c0.04-0.1,0.15-0.16,0.26-0.12
	c6.52,2.39,11.02,0.91,11.8,0.61c0.01-2.64,2.12-3.59,2.72-3.81c-0.23-3.05,0.42-9.27,0.43-9.34c0.01-0.11,0.11-0.19,0.22-0.18
	c0.11,0.01,0.19,0.11,0.18,0.22c-0.01,0.06-0.68,6.47-0.42,9.42c0.01,0.1-0.05,0.19-0.15,0.21c-0.11,0.03-2.65,0.73-2.58,3.6
	c0,0.08-0.04,0.15-0.12,0.19C97.48,193.55,95.65,194.34,92.55,194.34z"/>
<path fill="#231F20" d="M73.24,186.52c-0.06,0-0.12-0.03-0.16-0.08c-0.07-0.09-0.05-0.21,0.04-0.28l3.39-2.64
	c0.07-0.06,0.18-0.06,0.25,0l3.25,2.64c0.09,0.07,0.1,0.2,0.03,0.28c-0.07,0.09-0.2,0.1-0.28,0.03l-3.13-2.54l-3.26,2.54
	C73.32,186.51,73.28,186.52,73.24,186.52z"/>
<path fill="#231F20" d="M65.6,171.74c-0.06,0-0.12,0-0.18-0.01c-0.67-0.06-1.26-0.46-1.78-1.2c-1.53-2.19-9.52-10.36-9.6-10.45
	c-0.08-0.08-0.08-0.21,0-0.28c0.08-0.08,0.21-0.08,0.28,0c0.33,0.34,8.1,8.28,9.64,10.5c0.44,0.63,0.94,0.98,1.48,1.03
	c0.86,0.09,1.55-0.6,1.56-0.6c0.08-0.08,0.21-0.08,0.28,0c0.08,0.08,0.08,0.21,0,0.28C67.27,171.05,66.55,171.74,65.6,171.74z"/>
<path fill="#231F20" d="M63.08,178.09c-0.06,0-0.11-0.02-0.15-0.07c-0.07-0.08-0.06-0.21,0.02-0.28l10.45-8.79
	c0.09-0.07,0.21-0.06,0.28,0.02s0.06,0.21-0.03,0.28l-10.45,8.79C63.17,178.08,63.12,178.09,63.08,178.09z"/>
<path fill="#231F20" d="M63.81,179.64c-0.06,0-0.12-0.02-0.16-0.07c-0.07-0.08-0.06-0.21,0.03-0.28l10.55-8.57
	c0.09-0.07,0.21-0.06,0.28,0.03c0.07,0.08,0.06,0.21-0.03,0.28l-10.55,8.57C63.9,179.63,63.85,179.64,63.81,179.64z"/>
<path fill="#231F20" d="M105.22,175.72c-0.06,0-0.13-0.03-0.17-0.09c-0.06-0.09-0.04-0.22,0.05-0.28l4.05-2.73
	c0.05-0.03,0.11-0.04,0.16-0.03l9.09,2.37c0.11,0.03,0.17,0.14,0.14,0.24c-0.03,0.11-0.13,0.17-0.24,0.14l-9-2.34l-3.98,2.68
	C105.29,175.71,105.25,175.72,105.22,175.72z"/>
<path fill="#231F20" d="M154.25,175.04c-0.09,0-0.17-0.06-0.19-0.16c-0.03-0.11,0.04-0.21,0.15-0.24l10.81-2.44
	c0.05-0.01,0.1,0,0.14,0.02l4.45,2.44c0.1,0.05,0.13,0.17,0.08,0.27c-0.05,0.1-0.17,0.13-0.27,0.08l-4.39-2.41l-10.74,2.43
	C154.28,175.04,154.26,175.04,154.25,175.04z"/>
<g>
	<path fill="#231F20" d="M142.67,171.74c-0.01,0-0.01,0-0.02,0h-11.9c-1.1,0-2-0.9-2-2v-1.61c-4.91-0.9-8.12-2.45-9.74-3.42
		l-5.46,2.4c-0.62,0.27-1.34,0.21-1.9-0.16c-0.04-0.03-0.08-0.05-0.12-0.08c-11.47-1.58-20.89-4.33-28.77-8.4
		c-0.09-0.03-0.17-0.06-0.25-0.1c-0.78-0.37-1.85-0.53-3.46-0.53c-0.9,0-1.91,0.05-2.98,0.1c-1.27,0.06-2.71,0.13-4.24,0.13
		c-2.76,0-7.03-0.19-12.11-1.86c-12.76-4.18-17.05-18.95-16.85-30.33c0.15-8.62,5.74-15.26,9.43-19.66c0.8-0.95,1.87-2.22,2.18-2.77
		l0-0.07c0-0.18-0.01-0.36-0.01-0.54c0-5.61,0.81-11,2.42-16.06L20.16,70.26c-0.5-0.22-0.88-0.64-1.06-1.15l-1.38-3.87
		c-0.35-0.98,0.11-2.07,1.06-2.5l3.67-1.65c0.44-0.2,0.93-0.23,1.39-0.09l0.14,0.04l39.87,11.88c1.02-1.42,2.11-2.8,3.27-4.12
		c-1.66-4.85-4.58-17.36,1.86-33.46l0.07-0.17c0.22-0.56,0.69-0.99,1.26-1.17l0.18-0.06c0.28-0.09,1.43-0.41,3.51-0.41
		c4.36,0,13.64,1.46,28.45,10.72L97.66,5.73c-0.04-0.33,0-0.68,0.13-0.99l1.39-3.49c0.2-0.51,0.6-0.91,1.11-1.11
		c0.51-0.2,1.08-0.19,1.57,0.04l2.75,1.25c0.54,0.25,0.95,0.73,1.11,1.31l11,41.59c0.36-0.06,0.71-0.12,1.07-0.17l5.03-21.88
		c0.21-0.91,1.02-1.55,1.95-1.55h23.39c0.93,0,1.74,0.64,1.95,1.55l4.99,21.72c0.38,0.06,0.74,0.11,1.11,0.17l10.96-41.44
		c0.15-0.58,0.56-1.06,1.11-1.31l2.75-1.25c0.5-0.23,1.07-0.24,1.57-0.04c0.51,0.2,0.91,0.61,1.11,1.11l1.39,3.49
		c0.12,0.31,0.17,0.65,0.13,0.99l-0.01,0.1l-4.54,36.46c13.01-7.56,21.27-8.75,25.2-8.75c2.07,0,3.22,0.31,3.52,0.41l0.17,0.05
		c0.58,0.18,1.05,0.62,1.27,1.18l0.07,0.18c5.56,13.91,4.17,25.09,2.56,31.11c1.96,2.06,3.74,4.25,5.32,6.54L249.12,61
		c0.46-0.14,0.95-0.11,1.39,0.09l3.67,1.65c0.95,0.43,1.42,1.51,1.06,2.5l-1.38,3.87c-0.18,0.51-0.57,0.93-1.06,1.15l-37.23,16.75
		c1.48,4.93,2.23,10.19,2.25,15.68c0.31,0.63,1.87,2.16,2.91,3.18c2.72,2.66,6.44,6.3,8.54,11.12c3.89,8.92,2.63,24.3-5.44,32.99
		c-8.03,8.64-19.19,8.82-26.58,8.94c-2.26,0.04-4.39,0.07-5.49,0.38c-8.15,4.04-18.5,6.68-31.64,8.07
		c-0.24,0.03-0.48,0.01-0.71-0.05c-0.23-0.03-0.46-0.1-0.67-0.22l-4.34-2.3c-1.65,0.99-4.84,2.53-9.74,3.4l0,1.3
		c0.01,0.08,0.02,0.17,0.02,0.26C144.67,170.84,143.78,171.74,142.67,171.74z M132.76,167.74h7.89l0-1.27c0-1,0.74-1.85,1.74-1.99
		c6.71-0.89,10.1-3.18,10.71-3.63c0.62-0.46,1.44-0.52,2.12-0.16l4.35,2.3c0.44-0.06,0.9,0.03,1.27,0.25
		c12.18-1.37,21.77-3.87,29.27-7.62c0.09-0.04,0.18-0.08,0.28-0.11c1.62-0.53,3.9-0.56,6.78-0.61c6.71-0.11,16.85-0.27,23.72-7.66
		c6.9-7.43,8.02-21.07,4.71-28.67c-1.79-4.1-5.18-7.42-7.66-9.85c-2.4-2.35-4.13-4.04-4.12-5.9c0-5.74-0.87-11.22-2.59-16.27
		c-0.33-0.98,0.13-2.04,1.07-2.47l38.08-17.13l0.47-1.33l-1.31-0.59l-41,12.22c-0.85,0.25-1.77-0.08-2.25-0.83
		c-1.84-2.83-4.01-5.52-6.46-7.99c-0.52-0.52-0.71-1.28-0.5-1.99c1.53-5.07,3.29-15.47-1.82-28.82c-2.47-0.33-11.43-0.4-28.25,10.2
		c-0.65,0.41-1.49,0.41-2.14,0c-0.65-0.41-1.01-1.17-0.91-1.93l5-40.14l-0.42-1.04l-11.18,42.25c-0.27,1-1.25,1.64-2.28,1.46
		c-1.31-0.23-2.66-0.44-4.14-0.64c-0.82-0.11-1.49-0.72-1.68-1.53l-4.94-21.51h-20.21l-4.98,21.65c-0.19,0.81-0.85,1.42-1.67,1.53
		c-1.36,0.19-2.74,0.42-4.11,0.66c-1.03,0.18-2.02-0.45-2.29-1.46L102.11,4.71l-0.42,1.04l5.26,42.27c0.1,0.78-0.27,1.54-0.94,1.95
		c-0.67,0.41-1.51,0.39-2.16-0.04C87.8,39.15,78.26,37.54,74.01,37.54c-0.7,0-1.24,0.04-1.62,0.1c-6.07,15.86-2.4,27.61-1.11,30.88
		c0.28,0.71,0.13,1.52-0.39,2.09c-1.65,1.8-3.19,3.75-4.56,5.77c-0.49,0.72-1.39,1.05-2.23,0.8L23.41,65.04l-1.31,0.59l0.47,1.33
		l37.6,16.91c0.95,0.43,1.41,1.52,1.06,2.5c-1.84,5.12-2.78,10.66-2.78,16.46c0,0.15,0,0.3,0.01,0.45l0.01,0.42
		c0,0.12-0.01,0.25-0.03,0.37c-0.16,1.18-1.13,2.38-3.09,4.71c-3.34,3.97-8.38,9.97-8.5,17.17c-0.18,10.02,3.41,22.96,14.1,26.46
		c4.54,1.49,8.38,1.66,10.87,1.66c1.44,0,2.83-0.07,4.05-0.12c1.12-0.05,2.18-0.1,3.17-0.1c1.49,0,3.21,0.09,4.82,0.75
		c0.15,0.04,0.3,0.09,0.44,0.17c7.61,3.98,17.23,6.76,28.62,8.26l5.47-2.4c0.64-0.28,1.39-0.21,1.96,0.2
		c0.62,0.44,4.08,2.7,10.69,3.63c0.99,0.14,1.72,0.98,1.72,1.98V167.74z"/>
</g>
<path fill="#231F20" d="M268.77,137.25c-0.13,0-0.26-0.02-0.39-0.07c-12.07-4.19-39.22-4.99-39.49-5c-0.66-0.02-1.18-0.57-1.17-1.23
	c0.02-0.66,0.57-1.22,1.23-1.17c1.13,0.03,27.8,0.82,40.21,5.13c0.63,0.22,0.96,0.9,0.74,1.53
	C269.73,136.94,269.27,137.25,268.77,137.25z"/>
<path fill="#231F20" d="M268.77,148.09c-0.17,0-0.35-0.04-0.52-0.12c-12.26-5.9-40.72-7.55-41.01-7.57
	c-0.66-0.04-1.17-0.6-1.13-1.27s0.62-1.14,1.27-1.13c1.19,0.07,29.22,1.7,41.91,7.8c0.6,0.29,0.85,1,0.56,1.6
	C269.65,147.84,269.22,148.09,268.77,148.09z"/>
<path fill="#231F20" d="M1.2,135.98c-0.56,0-1.06-0.39-1.17-0.96c-0.13-0.65,0.28-1.28,0.93-1.42c15.58-3.22,44.21-3.81,44.49-3.81
	c0.64,0,1.21,0.51,1.22,1.18c0.01,0.66-0.51,1.21-1.18,1.22c-0.29,0-28.69,0.59-44.05,3.76C1.36,135.97,1.28,135.98,1.2,135.98z"/>
<path fill="#231F20" d="M1.2,148.09c-0.47,0-0.92-0.28-1.11-0.74c-0.25-0.61,0.04-1.31,0.65-1.57c8.94-3.67,21.09-5.59,29.71-6.56
	c4.01-0.45,16.55-1.53,17.36-1.05l-0.62,1.03L46,139.32l1.19-0.12l0.01,1.2c-0.28,0-28.88,0.75-45.54,7.6
	C1.51,148.06,1.35,148.09,1.2,148.09z"/>
<g>
	<path fill="#FFFFFF" d="M215.41,102.84c-0.02,2.69,8.25,7.3,11.65,15.1c3.4,7.8,2.71,22.1-5,30.4c-10.4,11.2-27.02,6.84-31.58,8.85
		"/>
	<path fill="#231F20" d="M190.48,157.58c-0.15,0-0.3-0.09-0.37-0.24c-0.09-0.2,0-0.44,0.21-0.53c1.42-0.62,3.82-0.66,6.87-0.71
		c6.91-0.11,17.36-0.27,24.58-8.04c7.32-7.89,8.46-21.86,4.93-29.97c-1.88-4.31-5.23-7.6-7.93-10.23c-2.18-2.14-3.76-3.68-3.75-5.03
		c0-0.22,0.18-0.4,0.4-0.4h0c0.22,0,0.4,0.18,0.4,0.4c-0.01,1.01,1.62,2.61,3.51,4.45c2.6,2.54,6.16,6.03,8.1,10.48
		c3.63,8.34,2.46,22.72-5.07,30.83c-7.45,8.02-18.1,8.19-25.15,8.3c-2.95,0.05-5.29,0.08-6.56,0.64
		C190.59,157.57,190.54,157.58,190.48,157.58z"/>
</g>
<path fill="#231F20" d="M206.19,153.26c-4.08,0-7.22-1.05-7.3-1.08c-0.21-0.07-0.32-0.3-0.25-0.51c0.07-0.21,0.3-0.32,0.51-0.25
	c0.04,0.02,4.41,1.5,9.42,0.94c6.67-0.74,11.28-4.57,13.71-11.37c1.94-5.42,1.93-9.91-0.03-13.35c-2.63-4.63-7.96-5.71-8.01-5.73
	c-0.22-0.04-0.36-0.25-0.32-0.47c0.04-0.22,0.25-0.36,0.47-0.32c0.23,0.05,5.74,1.17,8.56,6.12c2.08,3.65,2.1,8.36,0.08,14.01
	C219.49,151.19,211.92,153.26,206.19,153.26z"/>
<g>
	<path fill="#FFFFFF" d="M56.87,103.73c0.04,2.41-11.41,10.79-11.61,22.2c-0.2,11.41,4.2,24.41,15.2,28.01
		c11,3.6,18.51,0.12,23.07,2.27"/>
	<path fill="#231F20" d="M83.53,156.61c-0.06,0-0.11-0.01-0.17-0.04c-1.87-0.88-4.31-0.76-7.39-0.62c-4.15,0.2-9.3,0.44-15.64-1.63
		c-11.72-3.84-15.66-17.69-15.48-28.4c0.14-7.91,5.45-14.23,8.97-18.42c1.42-1.69,2.65-3.16,2.64-3.78c0-0.22,0.17-0.4,0.39-0.41
		c0,0,0,0,0.01,0c0.22,0,0.4,0.17,0.4,0.39c0.01,0.92-1.12,2.27-2.83,4.3c-3.44,4.1-8.65,10.29-8.78,17.91
		c-0.18,10.43,3.62,23.92,14.92,27.62c6.19,2.03,11.27,1.79,15.35,1.59c3.19-0.15,5.71-0.27,7.77,0.7c0.2,0.09,0.29,0.33,0.19,0.53
		C83.82,156.52,83.68,156.61,83.53,156.61z"/>
</g>
<path fill="#231F20" d="M78,153.3c-0.07,0-0.15-0.02-0.22-0.06c-1.42-0.92-4.44-0.91-7.63-0.9c-1.95,0-3.97,0.01-5.81-0.19
	c-3.94-0.44-7.84-2.57-10.71-5.87c-3.15-3.62-4.71-8.29-4.38-13.14c0.7-10.52,9.09-11.98,9.17-11.99c0.21-0.03,0.42,0.11,0.46,0.33
	s-0.11,0.42-0.33,0.46c-0.32,0.05-7.84,1.38-8.5,11.25c-0.53,7.94,5.12,17.13,14.38,18.16c1.79,0.2,3.79,0.2,5.72,0.19
	c3.31-0.01,6.45-0.01,8.07,1.03c0.19,0.12,0.24,0.37,0.12,0.55C78.26,153.23,78.14,153.3,78,153.3z"/>
<g>
	<path fill="#FFFFFF" d="M153.26,161.74l6.6,3.23c29.45-3.1,43.66-12.78,50.25-27.73l0.42-0.99c0.63-1.53,1.18-3.11,1.67-4.75
		l0.29-1.01c2.23-8.05,2.91-17.32,2.91-27.65c0-14.82-5.57-26.67-14.61-35.69c1.58-5.09,3.69-16.42-2.11-30.91
		c0,0-10.22-3.25-33.35,12.23c-9.06-2.26-18.7-3.38-28.36-3.38c-10.63,0-21.36,1.35-31.37,4.1C81.75,32.9,71.21,36.23,71.21,36.23
		c-6.88,17.2-2.62,29.93-1.33,33.09c-8.08,8.72-13.02,19.86-13.02,33.51c0,10.31,1.17,19.55,4.04,27.59l0.37,1.01
		c0.63,1.66,1.34,3.28,2.12,4.84l0.52,0.98c7.77,14.48,22.82,24.02,49.23,27.41l6.09-2.68"/>
	<path fill="#231F20" d="M159.86,165.36c-0.06,0-0.12-0.01-0.18-0.04l-6.6-3.23c-0.2-0.1-0.28-0.34-0.18-0.54
		c0.1-0.2,0.34-0.28,0.54-0.18l6.5,3.18c27.35-2.9,42.72-11.38,49.82-27.48l0.42-0.98c0.6-1.44,1.15-3.02,1.66-4.71l0.29-1
		c2-7.21,2.89-15.7,2.89-27.54c0-13.9-4.87-25.82-14.49-35.41c-0.11-0.1-0.14-0.26-0.1-0.4c1.65-5.32,3.57-16.33-2.02-30.45
		c-1.45-0.31-11.8-1.85-32.83,12.23c-0.09,0.06-0.21,0.08-0.32,0.06c-8.96-2.24-18.46-3.37-28.26-3.37
		c-10.71,0-21.53,1.41-31.27,4.09c-0.11,0.03-0.23,0.01-0.33-0.05C87,36.96,75.32,35.54,71.51,36.56
		c-6.66,16.81-2.65,29.21-1.26,32.61c0.06,0.14,0.03,0.31-0.08,0.42c-8.57,9.25-12.91,20.43-12.91,33.24
		c0,10.9,1.31,19.88,4.02,27.46l0.37,1.01c0.64,1.67,1.35,3.29,2.11,4.79l0.51,0.97c8.1,15.1,24.07,23.99,48.82,27.19l5.99-2.63
		c0.2-0.09,0.44,0,0.53,0.21s0,0.44-0.21,0.53l-6.09,2.68c-0.07,0.03-0.14,0.04-0.21,0.03c-25.09-3.22-41.29-12.25-49.54-27.62
		l-0.52-0.98c-0.78-1.54-1.5-3.18-2.15-4.88l-0.37-1.02c-2.74-7.67-4.07-16.74-4.07-27.73c0-12.93,4.36-24.23,12.95-33.59
		c-1.5-3.8-5.3-16.34,1.43-33.16c0.04-0.11,0.14-0.2,0.25-0.23c0.44-0.14,10.95-3.2,34.6,12.9c9.76-2.66,20.58-4.07,31.3-4.07
		c9.8,0,19.31,1.13,28.28,3.35c22.92-15.29,33.12-12.32,33.55-12.18c0.11,0.04,0.21,0.12,0.25,0.23
		c5.69,14.24,3.86,25.42,2.19,30.95c9.66,9.72,14.55,21.76,14.55,35.8c0,11.91-0.9,20.47-2.92,27.76l-0.29,1.01
		c-0.51,1.71-1.08,3.32-1.69,4.79l-0.42,0.99c-7.24,16.43-22.84,25.05-50.58,27.97C159.89,165.36,159.88,165.36,159.86,165.36z"/>
</g>
<path fill="#231F20" d="M194.9,62.87c-0.61,0-1.29-0.31-1.98-0.9c-1.44-1.23-13.15-8.86-16.62-10.26l-0.45-0.18
	c-1.64-0.66-2.39-0.96-2.46-1.6c-0.06-0.52,0.41-0.95,1.23-1.52c2.43-1.68,11.96-5.51,15.91-6.71c0.98-0.3,2.01-0.57,2.85-0.57
	c2.22,0,2.89,1.9,3.26,4.96c0.61,5.06,0.24,12.47,0.04,14.6C196.5,62.65,195.38,62.87,194.9,62.87z M193.4,41.93
	c-0.74,0-1.7,0.26-2.62,0.54c-3.91,1.18-13.31,4.96-15.69,6.6c-0.79,0.55-0.88,0.74-0.89,0.79c0.09,0.18,1.04,0.56,1.97,0.93
	l0.45,0.18c3.56,1.44,15.25,9.04,16.84,10.4c0.53,0.45,1.05,0.7,1.46,0.7c0.71,0,0.93-0.79,0.99-1.45c0.2-2.1,0.57-9.43-0.03-14.43
	C195.43,42.61,194.66,41.93,193.4,41.93z"/>
<path fill="#231F20" d="M75.16,65.23c-0.47,0-1.6-0.21-1.79-2.17c-0.21-2.13-0.58-9.55,0.02-14.6c0.37-3.06,1.04-4.96,3.26-4.96
	c0.84,0,1.87,0.27,2.85,0.57c3.95,1.19,13.48,5.01,15.92,6.69c0.83,0.57,1.29,1,1.24,1.52c-0.07,0.64-0.82,0.94-2.46,1.6l-0.45,0.18
	c-3.46,1.4-15.17,9.04-16.61,10.28C76.45,64.92,75.77,65.23,75.16,65.23z M76.65,44.29c-1.27,0-2.04,0.68-2.46,4.26
	c-0.6,4.98-0.22,12.32-0.02,14.43c0.06,0.66,0.29,1.45,0.99,1.45c0.41,0,0.93-0.25,1.46-0.71c1.59-1.36,13.28-8.97,16.83-10.41
	l0.45-0.18c0.92-0.37,1.87-0.75,1.96-0.96c-0.01-0.02-0.1-0.22-0.9-0.76c-2.38-1.64-11.79-5.41-15.69-6.59
	C78.35,44.55,77.39,44.29,76.65,44.29z"/>
<g>
	<g>
		<polyline fill="#FFFFFF" points="117.47,56.34 125.1,23.14 147.86,23.14 155.49,56.34 		"/>
		<path fill="#231F20" d="M155.49,56.74c-0.18,0-0.35-0.12-0.39-0.31l-7.56-32.89h-22.12l-7.56,32.89c-0.05,0.22-0.26,0.35-0.48,0.3
			c-0.21-0.05-0.35-0.26-0.3-0.48l7.63-33.2c0.04-0.18,0.2-0.31,0.39-0.31h22.76c0.19,0,0.35,0.13,0.39,0.31l7.63,33.2
			c0.05,0.22-0.08,0.43-0.3,0.48C155.55,56.73,155.52,56.74,155.49,56.74z"/>
	</g>
</g>
<path fill="#231F20" d="M153.26,65.17c-0.19,0-0.35-0.13-0.39-0.32l-4.93-23.72h-22.91l-4.93,23.72c-0.05,0.22-0.26,0.36-0.47,0.31
	c-0.22-0.04-0.35-0.26-0.31-0.47l5-24.04c0.04-0.19,0.2-0.32,0.39-0.32h23.56c0.19,0,0.35,0.13,0.39,0.32l5,24.04
	c0.04,0.22-0.09,0.43-0.31,0.47C153.31,65.17,153.29,65.17,153.26,65.17z"/>
<path fill="#231F20" d="M150.09,77.15c-0.19,0-0.36-0.14-0.39-0.34l-4.98-31.07h-16.47l-4.98,31.07c-0.04,0.22-0.24,0.36-0.46,0.33
	c-0.22-0.04-0.37-0.24-0.33-0.46l5.03-31.41c0.03-0.19,0.2-0.34,0.4-0.34h17.16c0.2,0,0.36,0.14,0.39,0.34l5.03,31.41
	c0.04,0.22-0.11,0.42-0.33,0.46C150.13,77.15,150.11,77.15,150.09,77.15z"/>
<path fill="#231F20" d="M146.86,41.14c-0.2,0-0.37-0.14-0.39-0.34l-1.95-14.05h-16.06l-1.95,14.05c-0.03,0.22-0.23,0.37-0.45,0.34
	c-0.22-0.03-0.37-0.23-0.34-0.45l2-14.4c0.03-0.2,0.2-0.35,0.4-0.35h16.76c0.2,0,0.37,0.15,0.4,0.35l2,14.4
	c0.03,0.22-0.12,0.42-0.34,0.45C146.9,41.14,146.88,41.14,146.86,41.14z"/>
<g>
	<polyline fill="#FFFFFF" points="162.43,89.34 249.66,63.34 252.86,64.77 251.66,68.14 136.5,119.94 	"/>
	<path fill="#231F20" d="M136.5,120.34c-0.15,0-0.3-0.09-0.37-0.24c-0.09-0.2,0-0.44,0.2-0.53l115-51.73l1.02-2.86l-2.73-1.22
		l-87.09,25.96c-0.21,0.06-0.44-0.06-0.5-0.27c-0.06-0.21,0.06-0.43,0.27-0.5l87.23-26c0.09-0.03,0.19-0.02,0.28,0.02l3.2,1.44
		c0.19,0.08,0.28,0.3,0.21,0.5l-1.2,3.36c-0.04,0.1-0.11,0.19-0.21,0.23l-115.16,51.8C136.61,120.33,136.56,120.34,136.5,120.34z"/>
</g>
<g>
	<polyline fill="#FFFFFF" points="110.53,89.34 23.3,63.34 20.1,64.77 21.3,68.14 136.46,119.94 	"/>
	<path fill="#231F20" d="M136.46,120.34c-0.05,0-0.11-0.01-0.16-0.04L21.14,68.5c-0.1-0.04-0.18-0.13-0.21-0.23l-1.2-3.36
		c-0.07-0.2,0.02-0.41,0.21-0.5l3.2-1.44c0.09-0.04,0.19-0.05,0.28-0.02l87.23,26c0.21,0.06,0.33,0.29,0.27,0.5
		c-0.06,0.21-0.28,0.33-0.5,0.27L23.33,63.76l-2.73,1.22l1.02,2.86l115,51.73c0.2,0.09,0.29,0.33,0.2,0.53
		C136.76,120.25,136.61,120.34,136.46,120.34z"/>
</g>
<path fill="#231F20" d="M111.1,94.14c-0.02,0-0.04,0-0.06-0.01l-91-29.16c-0.11-0.03-0.16-0.15-0.13-0.25s0.15-0.16,0.25-0.13
	l90.9,29.13l3.12-2.24c0.09-0.06,0.21-0.04,0.28,0.05c0.06,0.09,0.04,0.21-0.05,0.28l-3.2,2.3
	C111.18,94.12,111.14,94.14,111.1,94.14z"/>
<path fill="#231F20" d="M161.86,94.14c-0.04,0-0.08-0.01-0.12-0.04l-3.2-2.3c-0.09-0.07-0.11-0.19-0.04-0.28
	c0.06-0.09,0.19-0.11,0.28-0.05l3.12,2.24l90.9-29.13c0.11-0.03,0.22,0.02,0.25,0.13s-0.02,0.22-0.13,0.25l-91,29.16
	C161.9,94.13,161.88,94.14,161.86,94.14z"/>
<g>
	<polygon fill="#FFFFFF" points="171.66,2.54 169.46,3.54 149.46,79.14 123.46,79.14 103.46,3.54 101.26,2.54 100.06,5.54 
		111.06,93.94 136.46,121.54 161.86,93.94 172.86,5.54 	"/>
	<path fill="#231F20" d="M136.46,121.94c-0.11,0-0.22-0.05-0.29-0.13l-25.4-27.6c-0.06-0.06-0.09-0.14-0.1-0.22l-11-88.4
		c-0.01-0.07,0-0.13,0.03-0.2l1.2-3c0.04-0.1,0.12-0.18,0.22-0.22c0.1-0.04,0.21-0.04,0.31,0.01l2.2,1
		c0.11,0.05,0.19,0.15,0.22,0.26l19.92,75.3h25.38l19.92-75.3c0.03-0.12,0.11-0.21,0.22-0.26l2.2-1c0.1-0.04,0.21-0.05,0.32-0.01
		c0.1,0.04,0.18,0.12,0.22,0.22l1.2,3c0.02,0.06,0.03,0.13,0.03,0.2l-11,88.4c-0.01,0.08-0.05,0.16-0.1,0.22l-25.4,27.6
		C136.68,121.89,136.57,121.94,136.46,121.94z M111.44,93.76l25.02,27.19l25.02-27.19l10.97-88.17l-1.01-2.52l-1.65,0.75
		l-19.95,75.42c-0.05,0.18-0.21,0.3-0.39,0.3h-26c-0.18,0-0.34-0.12-0.39-0.3L103.12,3.82l-1.64-0.75l-1.01,2.52L111.44,93.76z"/>
</g>
<g>
	<path fill="#FFFFFF" d="M153.26,85.14l-3.17-8.39h-13.55h-0.09h-13.55l-3.17,8.39c0,0,14.8,18.59,16.76,18.59
		S153.26,85.14,153.26,85.14z"/>
	<path fill="#231F20" d="M136.5,104.12c-1.99,0-13.57-14.34-17.07-18.74c-0.09-0.11-0.11-0.26-0.06-0.39l3.17-8.39
		c0.06-0.16,0.21-0.26,0.37-0.26h27.18c0.17,0,0.31,0.1,0.37,0.26l3.17,8.39c0.05,0.13,0.03,0.28-0.06,0.39
		C150.07,89.78,138.5,104.12,136.5,104.12z M120.2,85.07c7,8.77,15.04,18.1,16.3,18.26c1.26-0.16,9.31-9.48,16.3-18.26l-2.99-7.92
		h-26.62L120.2,85.07z"/>
</g>
<path fill="#231F20" d="M136.46,98.39c-2.25,0-16.25-12.57-16.85-13.1c-0.08-0.07-0.09-0.2-0.01-0.28s0.2-0.09,0.28-0.01
	c4.02,3.62,14.84,13,16.58,13s12.62-9.38,16.67-13c0.08-0.07,0.21-0.07,0.28,0.02c0.07,0.08,0.07,0.21-0.02,0.28
	C152.79,85.82,138.71,98.39,136.46,98.39z"/>
<path fill="#231F20" d="M136.46,106.74c-0.04,0-0.08-0.01-0.11-0.03l-22.2-14.9c-0.05-0.03-0.08-0.08-0.09-0.14l-13-89.1
	c-0.02-0.11,0.06-0.21,0.17-0.23c0.11-0.02,0.21,0.06,0.23,0.17l12.99,89.01l22.13,14.85c0.09,0.06,0.12,0.19,0.05,0.28
	C136.59,106.71,136.52,106.74,136.46,106.74z"/>
<path fill="#231F20" d="M136.46,121.74c-0.11,0-0.2-0.09-0.2-0.2v-15c0-0.07,0.03-0.13,0.09-0.17l22.12-14.85l12.99-89.01
	c0.02-0.11,0.12-0.19,0.23-0.17c0.11,0.02,0.18,0.12,0.17,0.23l-13,89.1c-0.01,0.06-0.04,0.11-0.09,0.14l-22.11,14.84v14.89
	C136.66,121.65,136.57,121.74,136.46,121.74z"/>
<g>
	<path fill="#FFFFFF" d="M213.33,127.11c0,0-1.08,7.43-11.48,11.03c0,0,8.9,2.4,13.55,0C220.06,135.74,218.41,127.88,213.33,127.11z
		"/>
	<path fill="#231F20" d="M209.83,139.6C209.83,139.6,209.83,139.6,209.83,139.6c-4.02,0-7.91-1.04-8.08-1.08
		c-0.17-0.04-0.29-0.2-0.29-0.37s0.1-0.33,0.27-0.39c10.02-3.47,11.2-10.63,11.21-10.71c0.02-0.11,0.07-0.2,0.16-0.26
		c0.09-0.06,0.19-0.09,0.3-0.07c2.95,0.45,4.67,3.06,5.06,5.46c0.45,2.75-0.64,5.18-2.86,6.32
		C214.17,139.23,212.23,139.6,209.83,139.6z M203.24,138.05c1.48,0.31,4.04,0.76,6.59,0.76h0c2.27,0,4.08-0.34,5.39-1.02
		c2.27-1.17,2.75-3.6,2.44-5.48c-0.33-2-1.69-4.18-4.02-4.72C213.28,129.15,211.41,134.76,203.24,138.05z"/>
</g>
<g>
	<path fill="#FFFFFF" d="M207.77,141.76c0,0-3.67,4.37-13.09,5.77c0,0,7.01,3,13.09,1.2C213.86,146.94,210.16,139.8,207.77,141.76z"
		/>
	<path fill="#231F20" d="M203.51,149.71L203.51,149.71c-4.71,0-8.81-1.73-8.99-1.81c-0.17-0.07-0.26-0.24-0.24-0.42
		c0.02-0.18,0.16-0.32,0.34-0.34c9.17-1.36,12.81-5.59,12.85-5.63c1.63-1.38,3.63,0.39,3.97,2.75c0.12,0.86,0.24,3.74-3.56,4.86
		C206.56,149.51,205.09,149.71,203.51,149.71z M196.24,147.68c1.59,0.51,4.33,1.24,7.27,1.24c1.5,0,2.9-0.19,4.15-0.56
		c3.09-0.91,3.12-3.09,2.99-3.98c-0.25-1.71-1.65-3.1-2.62-2.3C207.93,142.2,204.6,146.07,196.24,147.68z"/>
</g>
<g>
	<path fill="#231F20" d="M159.86,165.38c-0.22,0-0.4-0.18-0.4-0.4l-0.2-22.45c0-0.18,0.12-0.34,0.29-0.39l32.94-9.72l1.79-16.93
		c0.01-0.14,0.1-0.26,0.22-0.32l8.28-4.06l-6.52-1.17l-59.73,11.98c-0.22,0.04-0.43-0.1-0.47-0.31c-0.04-0.22,0.1-0.43,0.31-0.47
		l59.8-12c0.05-0.01,0.1-0.01,0.15,0l7.8,1.4c0.17,0.03,0.3,0.17,0.33,0.34c0.02,0.17-0.07,0.34-0.22,0.41l-9.18,4.5l-1.8,16.98
		c-0.02,0.16-0.13,0.29-0.28,0.34l-32.91,9.71l0.2,22.14C160.26,165.2,160.08,165.38,159.86,165.38
		C159.86,165.38,159.86,165.38,159.86,165.38z"/>
	<path fill="#231F20" d="M196.26,109.94c-0.22,0-0.4-0.18-0.4-0.4V93.06c0-0.22,0.18-0.4,0.4-0.4c0.22,0,0.4,0.18,0.4,0.4v16.48
		C196.66,109.76,196.48,109.94,196.26,109.94z"/>
	<path fill="#231F20" d="M194.68,115.74c-0.04,0-0.08-0.01-0.11-0.03l-6.54-4.37c-0.09-0.06-0.12-0.19-0.05-0.28
		c0.06-0.09,0.19-0.12,0.28-0.05l6.54,4.37c0.09,0.06,0.12,0.19,0.06,0.28C194.81,115.71,194.74,115.74,194.68,115.74z"/>
	<path fill="#231F20" d="M181.63,136.25c-0.06,0-0.11-0.02-0.15-0.07c-0.07-0.08-0.06-0.21,0.02-0.28l11.95-10.12
		c0.08-0.07,0.21-0.06,0.28,0.02c0.07,0.08,0.06,0.21-0.02,0.28l-11.95,10.12C181.73,136.24,181.68,136.25,181.63,136.25z"/>
	<path fill="#231F20" d="M76.7,109.94c-0.22,0-0.4-0.18-0.4-0.4V93.06c0-0.22,0.18-0.4,0.4-0.4c0.22,0,0.4,0.18,0.4,0.4v16.48
		C77.1,109.76,76.92,109.94,76.7,109.94z"/>
	<path fill="#231F20" d="M78.28,115.74c-0.06,0-0.13-0.03-0.17-0.09c-0.06-0.09-0.04-0.21,0.05-0.28l6.54-4.37
		c0.09-0.06,0.22-0.04,0.28,0.05c0.06,0.09,0.04,0.22-0.06,0.28l-6.54,4.37C78.36,115.73,78.32,115.74,78.28,115.74z"/>
	<g>
		<path fill="#FFFFFF" d="M148.86,159.14l5.39,2.85c0,0-5.39,4.45-17.36,4.45c-11.97,0-17.65-4.45-17.65-4.45l4.68-2.05"/>
		<path fill="#231F20" d="M136.89,166.84c-11.97,0-17.66-4.35-17.9-4.53c-0.11-0.09-0.17-0.23-0.15-0.37
			c0.02-0.14,0.11-0.26,0.24-0.32l4.68-2.05c0.2-0.09,0.44,0,0.53,0.21c0.09,0.2,0,0.44-0.21,0.53l-4.01,1.76
			c1.72,1.07,7.26,3.97,16.83,3.97c9.65,0,15.01-2.95,16.6-4l-4.82-2.55c-0.2-0.1-0.27-0.35-0.17-0.54c0.1-0.19,0.35-0.27,0.54-0.17
			l5.39,2.85c0.12,0.06,0.2,0.18,0.21,0.31s-0.04,0.26-0.14,0.35C154.28,162.49,148.86,166.84,136.89,166.84z"/>
	</g>
	<path fill="#231F20" d="M91.33,136.25c-0.05,0-0.09-0.02-0.13-0.05l-11.95-10.12c-0.08-0.07-0.09-0.2-0.02-0.28
		c0.07-0.08,0.2-0.09,0.28-0.02l11.95,10.12c0.08,0.07,0.09,0.2,0.02,0.28C91.44,136.23,91.39,136.25,91.33,136.25z"/>
	<path fill="#231F20" d="M113.15,165.07c-0.08,0-0.15-0.02-0.22-0.07c-0.11-0.08-0.18-0.2-0.18-0.34l0.15-21.83l-32.91-9.71
		c-0.15-0.05-0.27-0.18-0.28-0.34l-1.8-16.98l-9.18-4.5c-0.16-0.08-0.24-0.24-0.22-0.41c0.02-0.17,0.15-0.31,0.33-0.34l7.8-1.4
		c0.05-0.01,0.1-0.01,0.15,0l59.8,12c0.22,0.04,0.36,0.25,0.31,0.47c-0.04,0.22-0.25,0.35-0.47,0.31L76.7,109.95l-6.52,1.17
		l8.28,4.06c0.12,0.06,0.21,0.18,0.22,0.32l1.79,16.93l32.93,9.72l8.41,1.66c0.17,0.03,0.29,0.17,0.32,0.34l2.19,15.73
		c0.02,0.18-0.07,0.35-0.24,0.42l-10.76,4.73C113.26,165.06,113.21,165.07,113.15,165.07z M113.7,143.02l-0.14,21.03l9.92-4.36
		l-2.11-15.15L113.7,143.02z"/>
	<path fill="#231F20" d="M159.66,142.74c-0.04,0-0.07-0.01-0.11-0.03l-19.6-12.55c-0.08-0.05-0.11-0.14-0.08-0.23l3.24-9.82
		c0.04-0.11,0.15-0.16,0.25-0.13c0.11,0.03,0.16,0.15,0.13,0.25l-3.19,9.67l19.47,12.47c0.09,0.06,0.12,0.18,0.06,0.28
		C159.79,142.71,159.73,142.74,159.66,142.74z"/>
	<path fill="#231F20" d="M152.06,145.77c-0.12,0-0.23-0.05-0.31-0.15c-0.1-0.12-9.84-12.06-15.25-12.06
		c-5.41,0-14.38,10.79-14.47,10.9c-0.14,0.17-0.39,0.19-0.56,0.05s-0.2-0.39-0.05-0.56c0.38-0.46,9.31-11.19,15.09-11.19
		c5.78,0,15.46,11.86,15.87,12.36c0.14,0.17,0.11,0.42-0.06,0.56C152.24,145.74,152.15,145.77,152.06,145.77z"/>
	<path fill="#231F20" d="M159.86,165.36c-0.06,0-0.13-0.01-0.19-0.05l-11-5.83c-0.16-0.08-0.24-0.27-0.2-0.44l3.2-13.77
		c0.03-0.13,0.12-0.24,0.25-0.28l7.6-2.83c0.21-0.08,0.44,0.03,0.51,0.24s-0.03,0.44-0.24,0.51l-7.4,2.76l-3.08,13.26l10.73,5.68
		c0.2,0.1,0.27,0.35,0.17,0.54C160.14,165.29,160,165.36,159.86,165.36z"/>
	<path fill="#231F20" d="M113.3,142.74c-0.07,0-0.13-0.03-0.17-0.09c-0.06-0.09-0.03-0.22,0.06-0.28l19.49-12.47l-3.21-9.67
		c-0.04-0.11,0.02-0.22,0.13-0.25c0.1-0.04,0.22,0.02,0.25,0.13l3.26,9.82c0.03,0.09-0.01,0.18-0.08,0.23l-19.62,12.55
		C113.38,142.73,113.34,142.74,113.3,142.74z"/>
	<path fill="#231F20" d="M112.83,122.97c0,6.52-3.49,11.81-7.8,11.81c-4.31,0-7.8-5.29-7.8-11.81c0-3.5,1-6.63,2.6-8.8l11.67,2.2
		C112.34,118.25,112.83,120.53,112.83,122.97z"/>
	<path fill="#231F20" d="M176.37,122.97c0,6.52-3.49,11.81-7.8,11.81s-7.8-5.29-7.8-11.81c0-2.44,0.49-4.7,1.32-6.58l11.59-2.33
		C175.34,116.23,176.37,119.42,176.37,122.97z"/>
	<g>
		<polygon fill="#FFFFFF" points="140.06,154.14 142.26,166.12 142.26,169.34 131.16,169.34 131.16,166.07 133.06,154.14 		"/>
		<path fill="#231F20" d="M142.26,169.74h-11.1c-0.22,0-0.4-0.18-0.4-0.4v-3.27l1.91-12c0.03-0.19,0.2-0.34,0.4-0.34h7
			c0.19,0,0.36,0.14,0.39,0.33l2.2,11.98l0.01,3.29C142.66,169.56,142.48,169.74,142.26,169.74z M131.56,168.94h10.3v-2.82
			l-2.13-11.58h-6.33l-1.85,11.6L131.56,168.94z"/>
	</g>
	<path fill="#231F20" d="M138.76,164.14h-4.1c-0.2,0-0.36-0.14-0.39-0.33l-1.6-9.6c-0.04-0.22,0.11-0.42,0.33-0.46
		c0.22-0.04,0.42,0.11,0.46,0.33l1.54,9.27h3.41l1.25-9.25c0.03-0.22,0.23-0.38,0.45-0.34c0.22,0.03,0.37,0.23,0.34,0.45l-1.3,9.6
		C139.13,163.99,138.96,164.14,138.76,164.14z"/>
	<path fill="#231F20" d="M131.16,169.74c-0.07,0-0.15-0.02-0.21-0.06c-0.19-0.12-0.24-0.36-0.13-0.55l3.5-5.6
		c0.12-0.19,0.36-0.25,0.55-0.13c0.19,0.12,0.24,0.36,0.13,0.55l-3.5,5.6C131.42,169.67,131.29,169.74,131.16,169.74z"/>
	<path fill="#231F20" d="M142.26,169.74c-0.13,0-0.26-0.07-0.34-0.19l-3.5-5.6c-0.12-0.19-0.06-0.43,0.13-0.55
		c0.19-0.12,0.43-0.06,0.55,0.13l3.5,5.6c0.12,0.19,0.06,0.43-0.13,0.55C142.4,169.72,142.33,169.74,142.26,169.74z"/>
	<path fill="#231F20" d="M128.11,144.93c-0.03,0-0.07-0.01-0.1-0.02c-0.06-0.03-0.11-0.1-0.11-0.18v-2.2c0-0.07,0.04-0.13,0.09-0.17
		l8.3-5.43c0.07-0.04,0.15-0.04,0.22,0l8.3,5.43c0.06,0.04,0.09,0.1,0.09,0.17v2.2c0,0.07-0.04,0.14-0.1,0.18
		c-0.06,0.04-0.14,0.03-0.21-0.01l-8.19-5.4l-8.19,5.4C128.19,144.92,128.15,144.93,128.11,144.93z M128.31,142.65v1.72l7.99-5.26
		c0.07-0.04,0.15-0.04,0.22,0l7.99,5.26v-1.72l-8.1-5.3L128.31,142.65z"/>
	<path fill="#231F20" d="M128.11,149.38c-0.03,0-0.07-0.01-0.1-0.02c-0.06-0.03-0.11-0.1-0.11-0.18v-2.2c0-0.07,0.04-0.13,0.09-0.17
		l8.3-5.43c0.07-0.04,0.15-0.04,0.22,0l8.3,5.43c0.06,0.04,0.09,0.1,0.09,0.17v2.2c0,0.07-0.04,0.14-0.1,0.18
		c-0.06,0.04-0.14,0.03-0.21-0.01l-8.19-5.4l-8.19,5.4C128.19,149.37,128.15,149.38,128.11,149.38z M128.31,147.1v1.72l7.99-5.26
		c0.07-0.04,0.15-0.04,0.22,0l7.99,5.26v-1.72l-8.1-5.3L128.31,147.1z"/>
	<path fill="#231F20" d="M122.6,164.02c-0.07,0-0.15-0.04-0.18-0.11c-0.05-0.1-0.01-0.22,0.09-0.27l4.16-2.01l-5.14-17.37
		c-0.03-0.11,0.03-0.22,0.13-0.25c0.11-0.04,0.22,0.03,0.25,0.13l5.19,17.53c0.03,0.09-0.02,0.19-0.1,0.24l-4.32,2.08
		C122.66,164.01,122.63,164.02,122.6,164.02z"/>
	<path fill="#231F20" d="M151.86,163.62c-0.04,0-0.07-0.01-0.11-0.03l-4.76-2.95c-0.08-0.05-0.11-0.15-0.08-0.23l4.96-15.1
		c0.03-0.11,0.15-0.16,0.25-0.13c0.1,0.03,0.16,0.15,0.13,0.25l-4.91,14.96l4.63,2.87c0.09,0.06,0.12,0.18,0.06,0.28
		C151.99,163.59,151.93,163.62,151.86,163.62z"/>
</g>
<g>
	<path fill="#FFFFFF" d="M59.83,127.11c0,0-5.37,2.45-2.97,8.94c2.4,6.49,15.8,2.29,15.8,2.29S61.18,132.68,59.83,127.11z"/>
	<path fill="#231F20" d="M64.24,140.08C64.24,140.08,64.24,140.08,64.24,140.08c-4.19,0-6.8-1.31-7.76-3.88
		c-2.5-6.76,3.12-9.42,3.18-9.44c0.11-0.05,0.23-0.05,0.34,0c0.11,0.05,0.19,0.15,0.21,0.27c1.28,5.33,12.5,10.91,12.61,10.96
		c0.15,0.07,0.24,0.23,0.22,0.39c-0.01,0.16-0.12,0.3-0.28,0.35C72.6,138.77,68.41,140.08,64.24,140.08z M59.59,127.7
		c-1.16,0.71-4.22,3.14-2.35,8.21c0.82,2.23,3.18,3.36,7,3.36c0,0,0,0,0,0c2.88,0,5.84-0.66,7.33-1.05
		C68.88,136.79,61.16,132.34,59.59,127.7z"/>
</g>
<g>
	<path fill="#FFFFFF" d="M66.45,141.43c0,0,3.85,5.31,12.93,5.31c0,0-6.63,4.75-12.18,2.57C61.66,147.14,62.05,141.71,66.45,141.43z
		"/>
	<path fill="#231F20" d="M70.36,150.28c-1.18,0-2.3-0.2-3.31-0.6c-3.39-1.33-4.61-3.8-4.32-5.67c0.27-1.71,1.68-2.86,3.69-2.99
		c0.14-0.01,0.27,0.05,0.35,0.16c0.04,0.05,3.86,5.15,12.61,5.15c0.17,0,0.33,0.11,0.38,0.28c0.05,0.17-0.01,0.35-0.15,0.45
		C79.43,147.2,75.06,150.28,70.36,150.28z M66.27,141.84c-1.5,0.17-2.54,1.03-2.74,2.3c-0.24,1.55,0.85,3.63,3.82,4.8
		c0.92,0.36,1.93,0.54,3.02,0.54c3.09,0,6.12-1.48,7.69-2.38C70.62,146.67,67.02,142.76,66.27,141.84z"/>
</g>
<path fill="#231F20" d="M111.06,94.34c-0.12,0-0.25-0.06-0.33-0.17c-0.13-0.18-0.09-0.43,0.09-0.56l3.2-2.3
	c0.18-0.13,0.43-0.09,0.56,0.09c0.13,0.18,0.09,0.43-0.09,0.56l-3.2,2.3C111.22,94.31,111.14,94.34,111.06,94.34z"/>
<path fill="#231F20" d="M161.86,94.34c-0.08,0-0.16-0.02-0.23-0.08l-3.2-2.3c-0.18-0.13-0.22-0.38-0.09-0.56
	c0.13-0.18,0.38-0.22,0.56-0.09l3.2,2.3c0.18,0.13,0.22,0.38,0.09,0.56C162.11,94.28,161.98,94.34,161.86,94.34z"/>
<path fill="#231F20" d="M74.24,64.59c-0.01,0-0.01,0-0.02,0c-0.11-0.01-0.19-0.1-0.18-0.21c0.05-0.63,1.2-15.36,2.03-16.96
	c1.03-2,11.38,1.46,19.93,5.03c0.1,0.04,0.15,0.16,0.11,0.26c-0.04,0.1-0.16,0.15-0.26,0.11c-11.95-4.99-18.81-6.4-19.42-5.22
	c-0.63,1.22-1.57,11.53-1.98,16.8C74.44,64.51,74.35,64.59,74.24,64.59z"/>
<path fill="#231F20" d="M195.81,62.24c-0.11,0-0.2-0.08-0.2-0.19c-0.38-10.14-0.63-16.83-3.09-16.91c-0.02,0-0.04,0-0.06,0
	c-2.73,0-18.42,4.95-18.58,5c-0.1,0.04-0.22-0.02-0.25-0.13s0.03-0.22,0.13-0.25c0.66-0.21,16.19-5.1,18.78-5.01
	c2.83,0.09,3.06,6.2,3.48,17.3C196.02,62.14,195.93,62.23,195.81,62.24C195.82,62.24,195.81,62.24,195.81,62.24z"/>
<path fill="#231F20" d="M122.91,76.95c-0.02,0-0.03,0-0.05-0.01c-0.11-0.03-0.17-0.14-0.14-0.24l6.99-27.33
	c0.02-0.09,0.1-0.15,0.19-0.15h13.54c0.09,0,0.17,0.06,0.19,0.15l6.65,27.33c0.03,0.11-0.04,0.22-0.15,0.24
	c-0.11,0.03-0.22-0.04-0.24-0.15l-6.61-27.18h-13.22l-6.95,27.18C123.08,76.89,123,76.95,122.91,76.95z"/>
<path fill="#231F20" d="M128.71,40.94c-0.01,0-0.03,0-0.04,0c-0.11-0.02-0.18-0.12-0.16-0.23l2.18-11.45
	c0.02-0.09,0.1-0.16,0.2-0.16h11.08c0.1,0,0.18,0.07,0.2,0.16l2.14,11.45c0.02,0.11-0.05,0.21-0.16,0.23
	c-0.11,0.02-0.21-0.05-0.23-0.16l-2.11-11.29h-10.75l-2.15,11.29C128.89,40.87,128.81,40.94,128.71,40.94z"/>
<path fill="#231F20" d="M136.05,121.29c-0.03,0-0.05,0-0.08-0.02L76.63,96.92L58,91.83c-0.11-0.03-0.17-0.14-0.14-0.25
	c0.03-0.11,0.14-0.17,0.25-0.14l18.65,5.1l59.37,24.36c0.1,0.04,0.15,0.16,0.11,0.26C136.2,121.25,136.13,121.29,136.05,121.29z"/>
<path fill="#231F20" d="M137.68,120.69c-0.08,0-0.15-0.05-0.19-0.12c-0.04-0.1,0.01-0.22,0.11-0.26l58.58-23.76l18.03-5.11
	c0.11-0.03,0.22,0.03,0.25,0.14c0.03,0.11-0.03,0.22-0.14,0.25l-18.01,5.1l-58.56,23.75C137.73,120.69,137.7,120.69,137.68,120.69z"
	/>
<path fill="#231F20" d="M136.41,121.74c-0.01,0-0.02,0-0.03,0l-55.32-7.88c-0.11-0.02-0.19-0.12-0.17-0.23
	c0.02-0.11,0.12-0.19,0.23-0.17l55.29,7.88l55.43-7.88c0.11-0.02,0.21,0.06,0.23,0.17s-0.06,0.21-0.17,0.23l-55.46,7.88
	C136.43,121.74,136.42,121.74,136.41,121.74z"/>
<path fill="#231F20" d="M73.08,152.15c-0.01,0-0.01,0-0.02,0c-8.2-0.68-17.69-4.59-19.75-13.49c-1.25-5.4,0.44-8.8,2.06-10.7
	c1.77-2.07,3.8-2.84,3.88-2.87c0.1-0.04,0.22,0.01,0.26,0.12c0.04,0.1-0.01,0.22-0.12,0.26c-0.33,0.12-8.01,3.12-5.7,13.11
	c2.01,8.7,11.33,12.51,19.39,13.18c0.11,0.01,0.19,0.11,0.18,0.22C73.27,152.07,73.18,152.15,73.08,152.15z"/>
<path fill="#231F20" d="M208.95,148.46c-0.11,0-0.2-0.09-0.2-0.2c0-0.11,0.09-0.2,0.2-0.2c0.06,0,6.39-0.08,10.1-6.61
	c0.85-1.49,3.47-6.71,1.75-11.54c-1.01-2.81-3.31-4.92-6.84-6.28c-0.1-0.04-0.15-0.16-0.12-0.26s0.16-0.16,0.26-0.12
	c3.65,1.4,6.03,3.59,7.07,6.52c1.79,4.98-0.91,10.35-1.77,11.87c-2,3.51-4.73,5.18-6.67,5.96
	C210.63,148.45,209.02,148.46,208.95,148.46z"/>
<path fill="#231F20" d="M71.72,138.55c-12.48,0-14.47-9.23-14.49-9.32c-0.02-0.11,0.05-0.21,0.16-0.24
	c0.11-0.02,0.21,0.05,0.24,0.16c0.02,0.09,2.04,9.46,15.03,8.98c0.1-0.02,0.2,0.08,0.21,0.19s-0.08,0.2-0.19,0.21
	C72.34,138.55,72.03,138.55,71.72,138.55z"/>
<path fill="#231F20" d="M74.45,147.52c-7.72,0-10.78-4.75-10.81-4.81c-0.06-0.09-0.03-0.22,0.06-0.28c0.09-0.06,0.22-0.03,0.28,0.06
	c0.01,0.02,1.05,1.66,3.46,2.97c2.22,1.21,6.09,2.38,11.9,1.06c0.11-0.03,0.21,0.04,0.24,0.15c0.03,0.11-0.04,0.21-0.15,0.24
	C77.59,147.35,75.94,147.52,74.45,147.52z"/>
<path fill="#231F20" d="M201.86,138.34c-0.1,0-0.19-0.08-0.2-0.18c-0.01-0.11,0.07-0.21,0.18-0.22c12.78-1.05,14.7-8.71,14.72-8.79
	c0.02-0.11,0.13-0.18,0.24-0.15c0.11,0.03,0.17,0.13,0.15,0.24c-0.02,0.08-2.01,8.02-15.08,9.1
	C201.87,138.34,201.86,138.34,201.86,138.34z"/>
<path fill="#231F20" d="M198.81,147.97c-1.27,0-2.65-0.07-4.15-0.23c-0.11-0.01-0.19-0.11-0.18-0.22c0.01-0.11,0.12-0.19,0.22-0.18
	c6.17,0.66,10.24-0.27,12.57-1.16c2.52-0.96,3.6-2.1,3.61-2.11c0.08-0.08,0.2-0.08,0.28-0.01c0.08,0.08,0.08,0.2,0.01,0.28
	C211.02,144.51,207.69,147.97,198.81,147.97z"/>
<path fill="#231F20" d="M136.46,103.93c-0.11,0-0.2-0.09-0.2-0.2v-5.54c0-0.11,0.09-0.2,0.2-0.2c0.11,0,0.2,0.09,0.2,0.2v5.54
	C136.66,103.84,136.57,103.93,136.46,103.93z"/>
<path fill="#231F20" d="M126.33,68.95c-0.02,0-0.04,0-0.05-0.02c-0.04-0.02-0.05-0.07-0.04-0.11l1.38-5.1
	c0.01-0.02,0.02-0.04,0.03-0.05l14.64-12.73c0.03-0.02,0.06-0.03,0.1-0.02c0.03,0.01,0.06,0.04,0.07,0.07l0.8,3.52
	c0.01,0.04,0,0.07-0.03,0.1l-16.81,14.32C126.37,68.95,126.35,68.95,126.33,68.95z M127.79,63.81l-1.28,4.76l16.52-14.07l-0.75-3.3
	L127.79,63.81z"/>
<path fill="#231F20" d="M125.09,73.71c-0.02,0-0.04,0-0.05-0.01c-0.04-0.02-0.06-0.07-0.04-0.11l0.71-2.77
	c0.01-0.02,0.02-0.04,0.03-0.05l17.83-15.35c0.03-0.02,0.06-0.03,0.1-0.02c0.03,0.01,0.06,0.04,0.07,0.07l0.48,1.89
	c0.01,0.04,0,0.08-0.03,0.1l-19.02,16.23C125.14,73.7,125.11,73.71,125.09,73.71z M125.89,70.89l-0.62,2.43L144,57.34l-0.43-1.67
	L125.89,70.89z"/>
<path fill="#231F20" d="M131.11,35.71c-0.02,0-0.04-0.01-0.06-0.02c-0.03-0.02-0.05-0.06-0.04-0.1l0.43-2.59
	c0-0.03,0.02-0.06,0.05-0.07l4.51-2.45c0.01-0.01,0.03-0.01,0.05-0.01h4.08c0.05,0,0.09,0.03,0.1,0.08
	c0.01,0.04-0.01,0.09-0.05,0.11l-9.02,5.04C131.14,35.7,131.12,35.71,131.11,35.71z M131.63,33.08l-0.39,2.34l8.5-4.75h-3.67
	L131.63,33.08z"/>
<path fill="#231F20" d="M130.69,37.93c-0.02,0-0.04-0.01-0.06-0.02c-0.03-0.02-0.05-0.06-0.04-0.1l0.18-1.19
	c0-0.03,0.02-0.06,0.05-0.07l10.02-5.57c0.03-0.02,0.06-0.02,0.09,0c0.03,0.01,0.05,0.04,0.06,0.07l0.24,1.01
	c0.01,0.04-0.01,0.09-0.05,0.11l-10.44,5.75C130.73,37.93,130.71,37.93,130.69,37.93z M130.96,36.71l-0.14,0.94l10.19-5.62
	l-0.19-0.81L130.96,36.71z"/>
<path fill="#231F20" d="M136.46,133.36c-0.11,0-0.2-0.09-0.2-0.2v-11.62c0-0.11,0.09-0.2,0.2-0.2c0.11,0,0.2,0.09,0.2,0.2v11.62
	C136.66,133.27,136.57,133.36,136.46,133.36z"/>
<path fill="#231F20" d="M75.6,58.68c-0.02,0-0.03,0-0.04-0.01c-0.04-0.02-0.06-0.06-0.05-0.1l0.36-3.2c0-0.03,0.01-0.05,0.03-0.06
	L83,48.99c0.03-0.02,0.06-0.03,0.1-0.02l2.36,0.74c0.03,0.01,0.06,0.04,0.07,0.07c0.01,0.04,0,0.07-0.03,0.1l-9.83,8.78
	C75.65,58.68,75.63,58.68,75.6,58.68z M76.05,55.43l-0.32,2.91l9.51-8.49l-2.14-0.67L76.05,55.43z"/>
<path fill="#231F20" d="M75.36,60.52c-0.02,0-0.03,0-0.05-0.01c-0.04-0.02-0.06-0.06-0.05-0.11l0.15-0.79
	c0-0.02,0.01-0.04,0.03-0.06l10.65-9.54c0.02-0.02,0.05-0.03,0.09-0.02l0.79,0.15c0.04,0.01,0.07,0.04,0.08,0.07
	c0.01,0.04,0,0.08-0.03,0.1l-11.6,10.18C75.4,60.51,75.38,60.52,75.36,60.52z M75.6,59.68l-0.09,0.47l11.22-9.85l-0.55-0.1
	L75.6,59.68z"/>
<path fill="#231F20" d="M194.33,51.62c-0.01,0-0.02,0-0.03,0l-11.8-3.25c-0.04-0.01-0.07-0.05-0.07-0.1c0-0.05,0.03-0.09,0.07-0.1
	l5.08-1.36c0.02,0,0.03,0,0.05,0l6.37,1.69c0.04,0.01,0.07,0.04,0.07,0.08l0.34,2.89c0.01,0.01,0.01,0.03,0.01,0.04
	C194.43,51.57,194.39,51.62,194.33,51.62C194.33,51.62,194.33,51.62,194.33,51.62z M182.91,48.27l11.3,3.11l-0.32-2.71l-6.28-1.67
	L182.91,48.27z"/>
<path fill="#231F20" d="M194.33,53.82c-0.01,0-0.02,0-0.03,0l-14.5-4.75c-0.04-0.01-0.07-0.05-0.07-0.1c0-0.04,0.03-0.08,0.07-0.09
	l1.6-0.45c0.02,0,0.04,0,0.05,0l12.9,3.8c0.04,0.01,0.07,0.05,0.07,0.1v1.4c0,0.03-0.02,0.06-0.04,0.08
	C194.37,53.81,194.35,53.82,194.33,53.82z M180.17,48.98l14.06,4.6v-1.19l-12.8-3.77L180.17,48.98z"/>
<circle fill="#FFFFFF" cx="102.42" cy="118.65" r="1.85"/>
<circle fill="#FFFFFF" cx="166.26" cy="118.65" r="1.85"/>
<path fill="#231F20" d="M77.82,112.95c-0.01,0-0.03,0-0.04,0l-8.92-1.81c-0.11-0.02-0.18-0.13-0.16-0.24
	c0.02-0.11,0.13-0.18,0.24-0.16l8.87,1.8l6.89-1.59c0.11-0.03,0.21,0.04,0.24,0.15c0.02,0.11-0.04,0.21-0.15,0.24l-6.94,1.6
	C77.85,112.95,77.83,112.95,77.82,112.95z"/>
<path fill="#231F20" d="M195.29,112.95c-0.01,0-0.03,0-0.04,0l-6.87-1.4c-0.11-0.02-0.18-0.13-0.16-0.24s0.13-0.17,0.24-0.16
	l6.83,1.39l8.26-1.58c0.11-0.03,0.21,0.05,0.23,0.16c0.02,0.11-0.05,0.21-0.16,0.23l-8.3,1.59
	C195.32,112.95,195.3,112.95,195.29,112.95z"/>
<path fill="#231F20" d="M136.5,133.36c-0.05,0-0.09-0.02-0.13-0.05l-3.58-3.17c-0.08-0.07-0.09-0.2-0.02-0.28
	c0.07-0.08,0.2-0.09,0.28-0.02l3.44,3.05l3.42-3.05c0.08-0.08,0.21-0.07,0.28,0.02c0.07,0.08,0.07,0.21-0.02,0.28l-3.56,3.17
	C136.6,133.34,136.55,133.36,136.5,133.36z"/>
<path fill="#231F20" d="M139.54,118.4c-0.05,0-0.1-0.02-0.14-0.06c-0.08-0.08-0.08-0.21,0-0.28l25.87-25.36l0.8-4.53
	c0.02-0.11,0.12-0.18,0.23-0.16c0.11,0.02,0.18,0.12,0.16,0.23l-0.81,4.59c-0.01,0.04-0.03,0.08-0.06,0.11l-25.91,25.41
	C139.64,118.38,139.59,118.4,139.54,118.4z"/>
<path fill="#231F20" d="M164.23,89c-0.01,0-0.02,0-0.03,0c-0.11-0.02-0.19-0.12-0.17-0.23l6.11-43.46c0.01-0.11,0.12-0.18,0.22-0.17
	c0.11,0.02,0.19,0.12,0.17,0.23l-6.11,43.46C164.42,88.93,164.33,89,164.23,89z"/>
</svg>
